<svg width="55" height="55" viewBox="0 0 55 55" fill="none" xmlns="http://www.w3.org/2000/svg">
<circle cx="27.5" cy="27.5" r="27.5" fill="url(#paint0_linear_4985_10531)"/>
<path d="M33.1352 17.0623C34.5844 17.0666 35.9729 17.6442 36.9977 18.669C38.0224 19.6937 38.6 21.0823 38.6043 22.5314V33.4686C38.6 34.9177 38.0224 36.3063 36.9977 37.331C35.9729 38.3558 34.5844 38.9334 33.1352 38.9377H22.1981C20.7489 38.9334 19.3603 38.3558 18.3356 37.331C17.3109 36.3063 16.7333 34.9177 16.7289 33.4686V22.5314C16.7333 21.0823 17.3109 19.6937 18.3356 18.669C19.3603 17.6442 20.7489 17.0666 22.1981 17.0623H33.1352ZM33.1352 14.875H22.1981C17.9869 14.875 14.5416 18.3203 14.5416 22.5314V33.4686C14.5416 37.6797 17.9869 41.125 22.1981 41.125H33.1352C37.3463 41.125 40.7916 37.6797 40.7916 33.4686V22.5314C40.7916 18.3203 37.3463 14.875 33.1352 14.875Z" fill="white"/>
<path d="M34.7758 22.5313C34.4513 22.5313 34.1341 22.435 33.8643 22.2548C33.5945 22.0745 33.3842 21.8183 33.2601 21.5185C33.1359 21.2187 33.1034 20.8888 33.1667 20.5706C33.23 20.2523 33.3863 19.96 33.6157 19.7305C33.8452 19.5011 34.1375 19.3448 34.4557 19.2815C34.774 19.2182 35.1039 19.2507 35.4036 19.3749C35.7034 19.4991 35.9597 19.7093 36.1399 19.9791C36.3202 20.2489 36.4164 20.5661 36.4164 20.8906C36.4169 21.1062 36.3748 21.3198 36.2925 21.519C36.2102 21.7183 36.0894 21.8993 35.9369 22.0518C35.7845 22.2042 35.6035 22.325 35.4042 22.4073C35.2049 22.4896 34.9914 22.5317 34.7758 22.5313ZM27.6666 23.6246C28.532 23.6246 29.3779 23.8812 30.0974 24.362C30.8169 24.8427 31.3776 25.526 31.7088 26.3255C32.0399 27.125 32.1266 28.0047 31.9578 28.8534C31.7889 29.7021 31.3722 30.4817 30.7604 31.0935C30.1485 31.7054 29.3689 32.1221 28.5202 32.2909C27.6715 32.4597 26.7918 32.3731 25.9923 32.042C25.1929 31.7108 24.5095 31.15 24.0288 30.4305C23.548 29.711 23.2914 28.8651 23.2914 27.9998C23.2927 26.8398 23.754 25.7277 24.5743 24.9074C25.3945 24.0872 26.5066 23.6259 27.6666 23.6246ZM27.6666 21.4373C26.3687 21.4373 25.0999 21.8222 24.0207 22.5433C22.9415 23.2644 22.1004 24.2893 21.6037 25.4884C21.107 26.6876 20.977 28.0071 21.2302 29.2801C21.4834 30.5531 22.1085 31.7224 23.0262 32.6402C23.944 33.558 25.1133 34.183 26.3863 34.4362C27.6593 34.6894 28.9788 34.5595 30.178 34.0628C31.3771 33.5661 32.4021 32.7249 33.1231 31.6457C33.8442 30.5665 34.2291 29.2977 34.2291 27.9998C34.2291 26.2593 33.5377 24.5901 32.307 23.3594C31.0763 22.1287 29.4071 21.4373 27.6666 21.4373Z" fill="white"/>
<defs>
<linearGradient id="paint0_linear_4985_10531" x1="11.1667" y1="6" x2="42.1667" y2="50" gradientUnits="userSpaceOnUse">
<stop stop-color="#8C48DB"/>
<stop offset="0.270833" stop-color="#CC4498"/>
<stop offset="0.515625" stop-color="#F7416A"/>
<stop offset="0.807292" stop-color="#FE7C4A"/>
<stop offset="0.990131" stop-color="#FFB135"/>
</linearGradient>
</defs>
</svg>
