<svg width="56" height="55" viewBox="0 0 56 55" fill="none" xmlns="http://www.w3.org/2000/svg">
<circle cx="28" cy="27.5" r="27.5" fill="url(#paint0_linear_4985_10544)"/>
<path d="M28 15.8125C25.8834 15.8123 23.8032 16.3634 21.9643 17.4115C20.1253 18.4596 18.5911 19.9685 17.5125 21.7898C16.434 23.611 15.8483 25.6817 15.8133 27.7981C15.7782 29.9144 16.2949 32.0034 17.3125 33.8594L16.3164 37.375C16.2235 37.6954 16.2183 38.0348 16.3013 38.3578C16.3843 38.6809 16.5525 38.9758 16.7884 39.2116C17.0243 39.4475 17.3191 39.6157 17.6422 39.6987C17.9652 39.7817 18.3047 39.7765 18.625 39.6836L22.1406 38.6875C23.7699 39.5805 25.5817 40.0891 27.4376 40.1746C29.2936 40.2601 31.1445 39.9201 32.8489 39.1806C34.5533 38.4412 36.0661 37.3219 37.2717 35.9082C38.4772 34.4945 39.3436 32.824 39.8047 31.0242C40.2657 29.2244 40.3091 27.343 39.9316 25.5238C39.5541 23.7047 38.7658 21.9959 37.6267 20.5281C36.4877 19.0603 35.0281 17.8724 33.3597 17.0551C31.6912 16.2378 29.8579 15.8128 28 15.8125ZM28 38.3125C26.1488 38.3108 24.3319 37.8131 22.7383 36.8711C22.5912 36.7891 22.4262 36.7448 22.2578 36.7422C22.1707 36.7423 22.084 36.7541 22 36.7773L18.1094 37.8906L19.2227 34C19.2569 33.8769 19.2663 33.7482 19.2502 33.6214C19.2341 33.4946 19.1928 33.3724 19.1289 33.2617C17.968 31.3049 17.4868 29.0191 17.7604 26.7603C18.0339 24.5015 19.0467 22.3966 20.6412 20.7734C22.2356 19.1502 24.3221 18.0999 26.5756 17.7861C28.8292 17.4722 31.1232 17.9125 33.1005 19.0382C35.0777 20.164 36.6272 21.9121 37.5075 24.0102C38.3878 26.1083 38.5495 28.4386 37.9674 30.6381C37.3854 32.8377 36.0922 34.783 34.2894 36.1711C32.4866 37.5592 30.2753 38.3121 28 38.3125ZM34.293 25.457C34.469 25.6348 34.5678 25.8748 34.5678 26.125C34.5678 26.3752 34.469 26.6152 34.293 26.793L30.543 30.543C30.3638 30.7162 30.1243 30.8131 29.875 30.8131C29.6257 30.8131 29.3862 30.7162 29.207 30.543L26.125 27.4492L23.043 30.543C22.8608 30.6925 22.6296 30.7689 22.3942 30.7573C22.1589 30.7457 21.9362 30.6471 21.7696 30.4804C21.603 30.3138 21.5043 30.0912 21.4927 29.8558C21.4811 29.6204 21.5575 29.3892 21.707 29.207L25.457 25.457C25.6348 25.281 25.8748 25.1822 26.125 25.1822C26.3752 25.1822 26.6152 25.281 26.793 25.457L29.875 28.5508L32.957 25.457C33.1348 25.281 33.3748 25.1822 33.625 25.1822C33.8752 25.1822 34.1152 25.281 34.293 25.457Z" fill="white"/>
<defs>
<linearGradient id="paint0_linear_4985_10544" x1="11.5" y1="45" x2="50" y2="11.5" gradientUnits="userSpaceOnUse">
<stop stop-color="#2A7EFF"/>
<stop offset="0.260417" stop-color="#7A4BFF"/>
<stop offset="0.536458" stop-color="#B038E9"/>
<stop offset="0.776042" stop-color="#EC4C99"/>
<stop offset="1" stop-color="#FF666A"/>
</linearGradient>
</defs>
</svg>
