<svg width="56" height="55" viewBox="0 0 56 55" fill="none" xmlns="http://www.w3.org/2000/svg">
<circle cx="28" cy="27.5" r="27.5" fill="#26D367"/>
<path d="M36.3125 19.1376C35.1665 17.98 33.8015 17.0622 32.297 16.4376C30.7926 15.8131 29.1789 15.4944 27.55 15.5001C20.725 15.5001 15.1625 21.0626 15.1625 27.8876C15.1625 30.0751 15.7375 32.2001 16.8125 34.0751L15.0625 40.5001L21.625 38.7751C23.4375 39.7626 25.475 40.2876 27.55 40.2876C34.375 40.2876 39.9375 34.7251 39.9375 27.9001C39.9375 24.5876 38.65 21.4751 36.3125 19.1376ZM27.55 38.1876C25.7 38.1876 23.8875 37.6876 22.3 36.7501L21.925 36.5251L18.025 37.5501L19.0625 33.7501L18.8125 33.3626C17.7847 31.7213 17.2389 29.8241 17.2375 27.8876C17.2375 22.2126 21.8625 17.5876 27.5375 17.5876C30.2875 17.5876 32.875 18.6626 34.8125 20.6126C35.7719 21.5675 36.5321 22.7034 37.0492 23.9544C37.5664 25.2053 37.83 26.5465 37.825 27.9001C37.85 33.5751 33.225 38.1876 27.55 38.1876ZM33.2 30.4876C32.8875 30.3376 31.3625 29.5876 31.0875 29.4751C30.8 29.3751 30.6 29.3251 30.3875 29.6251C30.175 29.9376 29.5875 30.6376 29.4125 30.8376C29.2375 31.0501 29.05 31.0751 28.7375 30.9126C28.425 30.7626 27.425 30.4251 26.25 29.3751C25.325 28.5501 24.7125 27.5376 24.525 27.2251C24.35 26.9126 24.5 26.7501 24.6625 26.5876C24.8 26.4501 24.975 26.2251 25.125 26.0501C25.275 25.8751 25.3375 25.7376 25.4375 25.5376C25.5375 25.3251 25.4875 25.1501 25.4125 25.0001C25.3375 24.8501 24.7125 23.3251 24.4625 22.7001C24.2125 22.1001 23.95 22.1751 23.7625 22.1626H23.1625C22.95 22.1626 22.625 22.2376 22.3375 22.5501C22.0625 22.8626 21.2625 23.6126 21.2625 25.1376C21.2625 26.6626 22.375 28.1376 22.525 28.3376C22.675 28.5501 24.7125 31.6751 27.8125 33.0126C28.55 33.3376 29.125 33.5251 29.575 33.6626C30.3125 33.9001 30.9875 33.8626 31.525 33.7876C32.125 33.7001 33.3625 33.0376 33.6125 32.3126C33.875 31.5876 33.875 30.9751 33.7875 30.8376C33.7 30.7001 33.5125 30.6376 33.2 30.4876Z" fill="white"/>
</svg>
