<svg width="45" height="45" viewBox="0 0 45 45" fill="none" xmlns="http://www.w3.org/2000/svg">
<path d="M38.7655 16.1984C37.7089 17.1432 36.3421 17.6651 34.926 17.6643C33.5306 17.6658 32.1814 17.162 31.1271 16.2458C30.3684 16.5995 29.6622 17.0562 29.028 17.6032C29.0609 17.8506 29.0766 18.1001 29.0752 18.3498C29.0753 19.5015 28.7767 20.6334 28.2086 21.6345C30.7285 22.8917 32.7654 24.9451 34.005 27.4779C34.3368 27.4779 34.6822 27.4779 34.9937 27.4779C36.3689 27.4797 37.7417 27.3639 39.0973 27.1318V23.3109C39.0973 23.0409 39.2044 22.7819 39.3949 22.591C39.5854 22.4001 39.8437 22.2928 40.1131 22.2928C40.3825 22.2928 40.6409 22.4001 40.8314 22.591C41.0219 22.7819 41.1288 23.0409 41.1288 23.3109V26.6432C41.7482 26.4522 42.3419 26.1855 42.8963 25.8491C43.3076 25.6177 43.6473 25.2773 43.8781 24.865C43.9583 24.7002 44 24.5191 44 24.3357C44.0024 23.1497 43.7711 21.975 43.319 20.879C42.8669 19.783 42.2032 18.7873 41.3659 17.9493C40.6063 17.2197 39.7265 16.6274 38.7655 16.1984Z" fill="#E8FC66"/>
<path d="M34.9058 15.6011C35.4012 15.6017 35.892 15.5044 36.3499 15.3145C36.8077 15.1247 37.2235 14.8461 37.5738 14.4949C37.9245 14.1441 38.2027 13.7272 38.3921 13.2683C38.5815 12.8094 38.6786 12.3175 38.6776 11.8209C38.6833 11.3176 38.5884 10.8181 38.3989 10.352C38.2094 9.8858 37.9288 9.46226 37.5738 9.10622C36.8576 8.41664 35.8987 8.03851 34.9058 8.05424C34.4035 8.04859 33.9051 8.14355 33.44 8.33351C32.9749 8.52348 32.5524 8.80463 32.1971 9.16048C31.842 9.51653 31.5615 9.94007 31.372 10.4062C31.1824 10.8724 31.0878 11.3718 31.0934 11.8752C31.0924 12.3718 31.1893 12.8638 31.3788 13.3227C31.5682 13.7816 31.8463 14.1983 32.1971 14.5491C32.5568 14.8952 32.9814 15.1664 33.4463 15.3469C33.9112 15.5275 34.4073 15.6139 34.9058 15.6011Z" fill="#E8FC66"/>
<path d="M10.0063 27.5051C10.3381 27.5051 10.6835 27.5051 10.995 27.5051C12.2132 25.0182 14.1983 22.9907 16.6561 21.7228C16.0662 20.7068 15.7554 19.5523 15.7555 18.3769C15.7587 18.0818 15.7791 17.7873 15.8165 17.4946C15.2008 16.9708 14.5174 16.5325 13.785 16.1916C12.7259 17.1369 11.3567 17.6587 9.93855 17.6575C8.54518 17.6586 7.19849 17.1549 6.14652 16.2391C5.21767 16.6779 4.37038 17.2724 3.64105 17.9969C2.80284 18.8346 2.13799 19.83 1.68477 20.926C1.23156 22.0219 0.998809 23.1968 1 24.3832C1.00235 24.5672 1.04647 24.7481 1.12879 24.9125C1.2319 25.1213 1.3744 25.308 1.54855 25.4623C2.11168 25.9481 2.76539 26.3171 3.47176 26.5481L3.70866 26.6296V23.3584C3.70866 23.0884 3.81576 22.8295 4.00625 22.6386C4.19674 22.4476 4.45502 22.3404 4.72441 22.3404C4.99381 22.3404 5.25225 22.4476 5.44274 22.6386C5.63323 22.8295 5.74016 23.0884 5.74016 23.3584V27.1522C7.14885 27.3972 8.57663 27.5153 10.0063 27.5051Z" fill="#E8FC66"/>
<path d="M9.932 15.6011C10.4276 15.6029 10.9186 15.506 11.3766 15.3161C11.8346 15.1262 12.2505 14.8471 12.6 14.4949C12.9532 14.1456 13.2333 13.7292 13.424 13.27C13.6147 12.8109 13.7121 12.3183 13.7105 11.821C13.7164 11.317 13.6212 10.8169 13.4304 10.3505C13.2396 9.88417 12.9572 9.46106 12.6 9.10627C12.2505 8.75409 11.8346 8.47491 11.3766 8.28501C10.9186 8.09512 10.4276 7.99828 9.932 8.00002C9.43648 7.99903 8.94563 8.09624 8.48774 8.28609C8.02985 8.47594 7.61384 8.7547 7.26385 9.10627C6.90879 9.46231 6.62826 9.88585 6.43872 10.352C6.24918 10.8182 6.15451 11.3176 6.16015 11.821C6.15916 12.3176 6.25607 12.8095 6.4455 13.2684C6.63493 13.7273 6.91306 14.1441 7.26385 14.4949C7.61384 14.8465 8.02985 15.1252 8.48774 15.3151C8.94563 15.5049 9.43648 15.6021 9.932 15.6011Z" fill="#E8FC66"/>
<path d="M30.1656 25.4894C29.2371 24.5595 28.1471 23.8075 26.949 23.2702C25.7232 24.4056 24.1151 25.0357 22.446 25.0347C20.8073 25.0342 19.2269 24.4249 18.0105 23.3244C16.8557 23.8577 15.8035 24.5905 14.9023 25.4894C13.8969 26.4915 13.0998 27.6835 12.557 28.9964C12.0142 30.3093 11.7365 31.7169 11.7399 33.138C11.7421 33.3737 11.7976 33.6058 11.9025 33.8167C12.0383 34.0735 12.2196 34.3035 12.4374 34.4954C13.1214 35.0815 13.9125 35.5287 14.7669 35.8121L15.444 36.036V31.8011C15.444 31.5311 15.5509 31.2721 15.7414 31.0812C15.9319 30.8903 16.1904 30.7831 16.4598 30.7831C16.7292 30.7831 16.9874 30.8903 17.1779 31.0812C17.3684 31.2721 17.4755 31.5311 17.4755 31.8011V36.5518C19.1466 36.857 20.8421 37.007 22.5407 36.9997C24.1817 37.0013 25.8198 36.8605 27.4366 36.579V31.8283C27.4366 31.5583 27.5437 31.2993 27.7342 31.1084C27.9247 30.9175 28.1829 30.8102 28.4523 30.8102C28.7217 30.8102 28.9802 30.9175 29.1707 31.1084C29.3611 31.2993 29.4681 31.5583 29.4681 31.8283V36.1106C30.3398 35.8731 31.1739 35.5145 31.9464 35.0452C32.461 34.7578 32.8854 34.3324 33.1721 33.8167C33.277 33.6058 33.3325 33.3737 33.3347 33.138C33.3373 31.7165 33.0585 30.3085 32.5145 28.9956C31.9705 27.6827 31.1722 26.4909 30.1656 25.4894Z" fill="#E8FC66"/>
<path d="M17.787 18.3566C17.7854 18.9656 17.9043 19.5687 18.1368 20.1314C18.3692 20.694 18.7106 21.2049 19.1413 21.6345C19.5702 22.0659 20.0799 22.4078 20.6413 22.6408C21.2026 22.8738 21.8045 22.9931 22.4121 22.9919C23.0207 22.9936 23.6236 22.8746 24.1861 22.6416C24.7487 22.4087 25.2595 22.0664 25.6894 21.6345C26.1201 21.2049 26.4616 20.694 26.6941 20.1314C26.9266 19.5687 27.0453 18.9656 27.0438 18.3566C27.0453 17.7476 26.9266 17.1443 26.6941 16.5817C26.4616 16.019 26.1201 15.5081 25.6894 15.0785C24.8194 14.2089 23.6408 13.7207 22.4121 13.7212C21.1855 13.7218 20.0092 14.2099 19.1413 15.0785C18.7106 15.5081 18.3692 16.019 18.1368 16.5817C17.9043 17.1443 17.7854 17.7476 17.787 18.3566Z" fill="#E8FC66"/>
</svg>
