<svg width="45" height="45" viewBox="0 0 45 45" fill="none" xmlns="http://www.w3.org/2000/svg">
<path d="M24.0356 26.1231C24.0345 24.7458 24.305 23.3818 24.8315 22.1092C25.3581 20.8365 26.1303 19.6802 27.1042 18.7063C28.0781 17.7324 29.2345 16.96 30.5072 16.4335C31.7799 15.9069 33.1438 15.6365 34.5211 15.6376C35.1511 15.6406 35.7796 15.6998 36.3992 15.8145C36.1419 15.3944 35.8607 14.9894 35.557 14.6016C32.7777 11.2328 27.9182 8.6388 24.0271 11.915C23.6799 12.2242 23.351 12.5533 23.0418 12.9004C22.1741 14.0143 21.4365 15.2236 20.8435 16.505C20.7723 16.6549 20.6721 16.7893 20.5489 16.9005C20.4256 17.0117 20.2817 17.0976 20.1253 17.1531C19.9689 17.2087 19.803 17.2328 19.6372 17.2242C19.4714 17.2156 19.309 17.1745 19.1591 17.1031C19.0092 17.0318 18.8749 16.9317 18.7637 16.8084C18.6525 16.6852 18.5665 16.5412 18.511 16.3847C18.4555 16.2283 18.4315 16.0625 18.4401 15.8967C18.4487 15.7309 18.4898 15.5685 18.5612 15.4186C18.637 15.2586 18.7128 15.1154 18.797 14.9638C16.6813 14.8993 14.5854 14.5335 12.573 13.8773C11.0584 13.3684 9.63633 12.6175 8.36189 11.6539C7.07729 12.4347 5.93752 13.432 4.99304 14.6016C1.40521 18.998 1.3968 24.5145 3.11492 29.7615V29.8794C4.86672 35.1264 8.53044 42.0662 14.367 43.5064C15.3426 43.7297 16.356 43.7297 17.3316 43.5064C18.4517 43.2706 19.3528 42.4453 20.574 42.5884C21.4751 42.6895 22.2584 43.279 23.1006 43.5149C24.0846 43.7633 25.115 43.7633 26.0989 43.5149C29.5689 42.6726 32.2639 39.8596 34.2599 36.6255C31.5202 36.5616 28.9147 35.4259 27.003 33.4623C25.0914 31.4986 24.026 28.8636 24.0356 26.1231Z" fill="#E8FC66"/>
<path d="M11.7728 10.7781C14.0695 11.8576 16.5709 12.432 19.1085 12.4625C18.9593 11.634 18.731 10.8217 18.4264 10.0369C17.3794 7.25858 15.4193 4.91845 12.8678 3.40029C10.5942 2.08634 8.06839 1.26834 5.45624 1C5.56748 2.34628 5.87689 3.66869 6.37433 4.92464C7.37541 7.48418 9.30243 9.57368 11.7728 10.7781Z" fill="#E8FC66"/>
<path d="M40.1807 31.7239C40.9206 30.9858 41.5075 30.1088 41.9079 29.1434C42.3082 28.178 42.5141 27.143 42.5136 26.0979C42.5147 25.0514 42.3092 24.0151 41.9089 23.0482C41.5086 22.0813 40.9212 21.203 40.1807 20.4636C39.4424 19.7244 38.5653 19.1385 37.5997 18.7395C36.6342 18.3406 35.5994 18.1366 34.5547 18.139C33.5088 18.1364 32.4725 18.3403 31.5056 18.7392C30.5387 19.1381 29.6602 19.7242 28.9204 20.4636C28.1719 21.2036 27.5779 22.085 27.173 23.0566C26.7682 24.0282 26.5606 25.0706 26.5622 26.1232C26.5606 27.1677 26.7651 28.2023 27.164 29.1677C27.5629 30.1331 28.1483 31.0104 28.8867 31.7492C29.6261 32.4898 30.5044 33.077 31.4713 33.4773C32.4382 33.8777 33.4745 34.0832 34.521 34.0821C35.5737 34.0841 36.6161 33.8767 37.5878 33.4718C38.5595 33.0669 39.4409 32.4728 40.1807 31.7239ZM34.0915 29.4163C33.8677 29.6605 33.5571 29.8071 33.2262 29.8244C32.8954 29.8418 32.571 29.7284 32.323 29.5089L30.2509 27.6897C30.0001 27.4676 29.847 27.1555 29.8249 26.8212C29.8028 26.4868 29.9136 26.1573 30.1331 25.9042C30.3552 25.6533 30.6673 25.5003 31.0017 25.4782C31.336 25.4561 31.6656 25.5668 31.9187 25.7863L33.064 26.797L37.1992 22.2995C37.3107 22.1775 37.4452 22.0788 37.595 22.009C37.7448 21.9391 37.9069 21.8994 38.0721 21.8924C38.2372 21.8854 38.4021 21.911 38.5573 21.9679C38.7125 22.0247 38.8549 22.1117 38.9764 22.2237C39.0986 22.336 39.1975 22.4712 39.2675 22.6217C39.3375 22.7722 39.3771 22.935 39.3841 23.1008C39.3911 23.2666 39.3656 23.4322 39.3086 23.588C39.2517 23.7439 39.1645 23.887 39.0522 24.0092L34.0915 29.4163Z" fill="#E8FC66"/>
</svg>
