<svg width="45" height="45" viewBox="0 0 45 45" fill="none" xmlns="http://www.w3.org/2000/svg">
<path d="M41.3537 24.9366C41.3537 25.7526 41.0295 26.5352 40.4526 27.1122C39.8756 27.6892 39.093 28.0133 38.2771 28.0133C38.1146 28.0093 37.9528 27.9939 37.7926 27.9672H37.6386C35.0863 27.5238 32.7139 26.3602 30.8007 24.6135L33.6851 18.5524C34.2433 19.4417 34.985 20.2017 35.8604 20.7814C36.7359 21.361 37.7251 21.747 38.7617 21.9137C39.4872 22.029 40.1474 22.4001 40.6231 22.9599C41.0918 23.5122 41.3505 24.2122 41.3537 24.9366Z" fill="#E8FC66"/>
<path d="M19.5017 32.5745C18.6884 33.2078 17.8027 33.7422 16.8634 34.1666C14.859 35.0449 12.6906 35.4855 10.5025 35.4589C8.68001 35.4641 6.86641 35.205 5.11829 34.6897C4.34916 34.4376 3.71036 33.8925 3.34034 33.1726C2.97032 32.4527 2.89885 31.616 3.14147 30.8439C3.30518 30.3428 3.59485 29.8922 3.98275 29.5353C4.37065 29.1783 4.84367 28.9271 5.35659 28.8055C6.67957 28.4902 7.95643 29.1671 9.24864 29.3132C10.6322 29.4668 12.0326 29.3359 13.3638 28.9286C14.1996 28.6837 14.9822 28.2845 15.6713 27.7518C15.8587 28.3618 16.1169 28.9478 16.4405 29.4978C17.2018 30.7521 18.2513 31.8068 19.5017 32.5745Z" fill="#E8FC66"/>
<path d="M40.2461 43.1659C40.2461 43.4719 40.1245 43.7654 39.9081 43.9817C39.6917 44.1981 39.3983 44.3197 39.0923 44.3197H14.4789C14.1729 44.3197 13.8793 44.1981 13.663 43.9817C13.4466 43.7654 13.3251 43.4719 13.3251 43.1659C13.3251 42.8599 13.4466 42.5665 13.663 42.3502C13.8793 42.1338 14.1729 42.0122 14.4789 42.0122H29.8623C30.0392 42.0122 30.1008 41.966 30.0854 41.7661C30.0313 40.6136 29.908 39.4655 29.7162 38.3279C29.462 36.9884 28.9723 35.7045 28.2701 34.5358C27.8812 33.9048 27.4104 33.3281 26.8701 32.8206C26.6932 32.6591 26.5009 32.4976 26.3009 32.336C25.5623 31.7585 24.7261 31.3183 23.8319 31.0362C21.9167 30.3901 20.1938 29.7747 19.1016 27.9595C18.7003 27.2868 18.4443 26.5374 18.3503 25.7598C18.2562 24.9821 18.3261 24.1934 18.5555 23.4445C18.817 22.7676 19.2093 22.106 19.5247 21.4522L22.1013 16.0065C22.1705 15.8604 22.5782 14.6759 22.7475 14.6374C22.1175 14.7589 21.4978 14.9286 20.8938 15.1451C18.7772 15.941 16.8377 17.1459 15.1865 18.6909C14.8865 18.9617 14.5361 19.1707 14.1553 19.306C13.7746 19.4414 13.371 19.5003 12.9674 19.4796C12.5638 19.4588 12.1682 19.3589 11.8033 19.1853C11.4384 19.0117 11.1114 18.7679 10.8407 18.4679C10.57 18.1679 10.3609 17.8176 10.2255 17.4368C10.0902 17.0561 10.0313 16.6524 10.052 16.2488C10.0727 15.8452 10.1727 15.4497 10.3463 15.0848C10.5199 14.7199 10.7638 14.3928 11.0638 14.1221C13.3092 12.0416 15.9405 10.4214 18.8092 9.35321C20.8457 8.61171 22.9953 8.22917 25.1626 8.22255C26.2497 8.22057 27.3344 8.32623 28.4008 8.53794C28.6851 8.55883 28.965 8.62101 29.2315 8.72253C29.5936 8.77576 29.9476 8.87395 30.2854 9.01482C31.4144 9.48713 32.3096 10.3886 32.7741 11.5209C33.2386 12.6532 33.2343 13.9237 32.7621 15.0528L32.5313 15.6066L27.5856 25.9981C27.8779 26.1365 28.1778 26.2826 28.4624 26.4365C28.7469 26.5903 29.2315 26.9057 29.5853 27.1595C30.7034 27.9525 31.7032 28.9004 32.5544 29.9747C34.2753 32.2426 35.4089 34.9007 35.8542 37.7125C36.1585 39.1404 36.2261 40.6086 36.0542 42.0583C37.0618 42.0583 38.0693 42.0583 39.0769 42.0583C39.3778 42.0541 39.6683 42.1675 39.8867 42.3744C40.1051 42.5813 40.2341 42.8653 40.2461 43.1659Z" fill="#E8FC66"/>
<path d="M8.87938 42.0121H6.1026C5.7966 42.0121 5.50323 42.1338 5.28685 42.3501C5.07048 42.5665 4.94884 42.8599 4.94884 43.1659C4.94884 43.4719 5.07048 43.7653 5.28685 43.9817C5.50323 44.1981 5.7966 44.3196 6.1026 44.3196H8.87938C9.18538 44.3196 9.47875 44.1981 9.69513 43.9817C9.9115 43.7653 10.0331 43.4719 10.0331 43.1659C10.0331 42.8599 9.9115 42.5665 9.69513 42.3501C9.47875 42.1338 9.18538 42.0121 8.87938 42.0121Z" fill="#E8FC66"/>
<path d="M33.0852 8.33789C35.1115 8.33789 36.7541 6.69524 36.7541 4.66894C36.7541 2.64264 35.1115 1 33.0852 1C31.0589 1 29.4162 2.64264 29.4162 4.66894C29.4162 6.69524 31.0589 8.33789 33.0852 8.33789Z" fill="#E8FC66"/>
</svg>
