<svg width="24" height="24" viewBox="0 0 24 24" fill="none" xmlns="http://www.w3.org/2000/svg">
<path d="M11.0962 6.45192C11.0962 6.11737 10.8249 5.84615 10.4904 5.84615C10.1558 5.84615 9.88461 6.11737 9.88461 6.45192V16.3462C9.88461 16.6807 10.1558 16.9519 10.4904 16.9519C10.8249 16.9519 11.0962 16.6807 11.0962 16.3462V6.45192Z" fill="white"/>
<path d="M15.1346 7.66346C15.1346 7.3289 14.8634 7.05769 14.5288 7.05769C14.1943 7.05769 13.9231 7.3289 13.9231 7.66346V14.9327C13.9231 15.2672 14.1943 15.5385 14.5288 15.5385C14.8634 15.5385 15.1346 15.2672 15.1346 14.9327V7.66346Z" fill="white"/>
<path d="M9.07692 8.67308C9.07692 8.33852 8.80571 8.06731 8.47115 8.06731C8.1366 8.06731 7.86538 8.33852 7.86538 8.67308V13.9231C7.86538 14.2576 8.1366 14.5288 8.47115 14.5288C8.80571 14.5288 9.07692 14.2576 9.07692 13.9231V8.67308Z" fill="white"/>
<path d="M13.1154 9.68269C13.1154 9.34813 12.8442 9.07692 12.5096 9.07692C12.1751 9.07692 11.9038 9.34813 11.9038 9.68269V12.9135C11.9038 13.248 12.1751 13.5192 12.5096 13.5192C12.8442 13.5192 13.1154 13.248 13.1154 12.9135V9.68269Z" fill="white"/>
<path d="M17.1538 10.0865C17.1538 9.75198 16.8826 9.48077 16.5481 9.48077C16.2135 9.48077 15.9423 9.75198 15.9423 10.0865V12.5096C15.9423 12.8442 16.2135 13.1154 16.5481 13.1154C16.8826 13.1154 17.1538 12.8442 17.1538 12.5096V10.0865Z" fill="white"/>
<path d="M7.05769 10.4904C7.05769 10.1558 6.78648 9.88461 6.45192 9.88461C6.11737 9.88461 5.84615 10.1558 5.84615 10.4904V12.1058C5.84615 12.4403 6.11737 12.7115 6.45192 12.7115C6.78648 12.7115 7.05769 12.4403 7.05769 12.1058V10.4904Z" fill="white"/>
<path fill-rule="evenodd" clip-rule="evenodd" d="M1 11.5C1 5.70102 5.70102 1 11.5 1C17.299 1 22 5.70102 22 11.5C22 17.299 17.299 22 11.5 22C5.70102 22 1 17.299 1 11.5ZM11.5 3.01923C6.81613 3.01923 3.01923 6.81623 3.01923 11.5C3.01923 16.1838 6.81613 19.9808 11.5 19.9808C16.1839 19.9808 19.9808 16.1838 19.9808 11.5C19.9808 6.81623 16.1839 3.01923 11.5 3.01923Z" fill="white"/>
</svg>
