<svg width="41" height="41" viewBox="0 0 41 41" fill="none" xmlns="http://www.w3.org/2000/svg">
<g clip-path="url(#clip0_1923_23675)">
<path d="M3.62207 13.2461L3.62207 15.9961L-3.25293 15.9961L-3.25293 9.1211L-0.502928 9.12109L-0.502928 13.2461L3.62207 13.2461ZM9.12207 15.9961L9.12207 13.2461L13.2471 13.2461L13.2471 9.12109L15.9971 9.12109L15.9971 15.9961L9.12207 15.9961ZM-0.502929 -0.503904L-0.502928 3.6211L-3.25293 3.6211L-3.25293 -3.2539L3.62207 -3.2539L3.62207 -0.503904L-0.502929 -0.503904ZM15.9971 3.62109L13.2471 3.62109L13.2471 -0.503904L9.12207 -0.503904L9.12207 -3.2539L15.9971 -3.2539L15.9971 3.62109Z" fill="white"/>
</g>
<g clip-path="url(#clip1_1923_23675)">
<path d="M37.3721 13.2461L37.3721 15.9961L44.2471 15.9961L44.2471 9.12109L41.4971 9.12109L41.4971 13.2461L37.3721 13.2461ZM31.8721 15.9961L31.8721 13.2461L27.7471 13.2461L27.7471 9.12109L24.9971 9.12109L24.9971 15.9961L31.8721 15.9961ZM41.4971 -0.503905L41.4971 3.62109L44.2471 3.62109L44.2471 -3.25391L37.3721 -3.2539L37.3721 -0.503905L41.4971 -0.503905ZM24.9971 3.62109L27.7471 3.62109L27.7471 -0.503904L31.8721 -0.503905L31.8721 -3.2539L24.9971 -3.2539L24.9971 3.62109Z" fill="white"/>
</g>
<g clip-path="url(#clip2_1923_23675)">
<path d="M37.3721 27.7461L37.3721 24.9961L44.2471 24.9961L44.2471 31.8711L41.4971 31.8711L41.4971 27.7461L37.3721 27.7461ZM31.8721 24.9961L31.8721 27.7461L27.7471 27.7461L27.7471 31.8711L24.9971 31.8711L24.9971 24.9961L31.8721 24.9961ZM41.4971 41.4961L41.4971 37.3711L44.2471 37.3711L44.2471 44.2461L37.3721 44.2461L37.3721 41.4961L41.4971 41.4961ZM24.9971 37.3711L27.7471 37.3711L27.7471 41.4961L31.8721 41.4961L31.8721 44.2461L24.9971 44.2461L24.9971 37.3711Z" fill="white"/>
</g>
<g clip-path="url(#clip3_1923_23675)">
<path d="M3.62207 27.7461L3.62207 24.9961L-3.25293 24.9961L-3.25293 31.8711L-0.502927 31.8711L-0.502928 27.7461L3.62207 27.7461ZM9.12207 24.9961L9.12207 27.7461L13.2471 27.7461L13.2471 31.8711L15.9971 31.8711L15.9971 24.9961L9.12207 24.9961ZM-0.502927 41.4961L-0.502927 37.3711L-3.25293 37.3711L-3.25293 44.2461L3.62207 44.2461L3.62207 41.4961L-0.502927 41.4961ZM15.9971 37.3711L13.2471 37.3711L13.2471 41.4961L9.12207 41.4961L9.12207 44.2461L15.9971 44.2461L15.9971 37.3711Z" fill="white"/>
</g>
<defs>
<clipPath id="clip0_1923_23675">
<rect width="7" height="7" fill="white" transform="matrix(-4.37114e-08 -1 -1 4.37114e-08 15.9971 15.9961)"/>
</clipPath>
<clipPath id="clip1_1923_23675">
<rect width="7" height="7" fill="white" transform="translate(24.9971 15.9961) rotate(-90)"/>
</clipPath>
<clipPath id="clip2_1923_23675">
<rect width="7" height="7" fill="white" transform="matrix(-4.37114e-08 1 1 4.37114e-08 24.9971 24.9961)"/>
</clipPath>
<clipPath id="clip3_1923_23675">
<rect width="7" height="7" fill="white" transform="translate(15.9971 24.9961) rotate(90)"/>
</clipPath>
</defs>
</svg>
