<svg width="37" height="37" viewBox="0 0 37 37" fill="none" xmlns="http://www.w3.org/2000/svg">
<rect width="37" height="37" rx="18.5" transform="matrix(1.19249e-08 -1 -1 -1.19249e-08 37 37)" fill="white"/>
<path fill-rule="evenodd" clip-rule="evenodd" d="M30.2891 22.5002C29.9045 23.1683 28.9405 23.1683 28.5559 22.5002L25.0015 16.3267C24.6177 15.66 25.0989 14.8277 25.8681 14.8277L27.7555 14.8277C27.6334 14.496 27.4944 14.1695 27.3388 13.8495C26.3597 11.8368 24.7703 10.1867 22.7985 9.13549C20.8267 8.08432 18.5736 7.68611 16.3623 7.99793C14.1509 8.30976 12.0947 9.31562 10.4884 10.8713C8.88217 12.4271 7.80828 14.4528 7.42066 16.6582C7.03305 18.8635 7.35162 21.1354 8.33071 23.148C9.3098 25.1607 10.8992 26.8109 12.871 27.862C14.511 28.7363 16.3455 29.1589 18.1888 29.097C18.8086 29.0761 19.3771 29.4977 19.4632 30.1119C19.5492 30.7254 19.1216 31.2978 18.503 31.3302C16.1893 31.4514 13.8783 30.9413 11.8202 29.8441C9.431 28.5704 7.50521 26.5709 6.31886 24.1322C5.1325 21.6935 4.7465 18.9408 5.21616 16.2685C5.68583 13.5963 6.98705 11.1418 8.93334 9.25673C10.8796 7.37169 13.3711 6.15291 16.0506 5.77507C18.73 5.39723 21.46 5.87974 23.8493 7.15343C26.2385 8.42712 28.1643 10.4266 29.3506 12.8653C29.6596 13.5005 29.9143 14.1569 30.1137 14.8277L32.9769 14.8277C33.7462 14.8277 34.2274 15.66 33.8435 16.3267L30.2891 22.5002Z" fill="#232323"/>
<path d="M13.9813 14.9247H15.0133V23.4688H13.7293V17.3727H11.7733V16.4247L11.9653 16.4128C12.5813 16.3727 13.0413 16.2447 13.3453 16.0287C13.6573 15.8047 13.8693 15.4367 13.9813 14.9247ZM19.4779 17.8767C20.3899 17.8767 21.1059 18.1487 21.6259 18.6927C22.1379 19.2287 22.3939 19.9127 22.3939 20.7447C22.3939 21.6087 22.1139 22.3087 21.5539 22.8447C20.9859 23.3888 20.2419 23.6608 19.3219 23.6608C18.4819 23.6608 17.7819 23.4248 17.2219 22.9527C16.6779 22.4887 16.3739 21.8607 16.3099 21.0687H17.5579C17.6139 21.5247 17.8019 21.8887 18.1219 22.1607C18.4499 22.4327 18.8499 22.5687 19.3219 22.5687C19.8499 22.5687 20.2779 22.4007 20.6059 22.0647C20.9419 21.7207 21.1099 21.2807 21.1099 20.7447C21.1099 20.2007 20.9419 19.7607 20.6059 19.4247C20.2779 19.0807 19.8499 18.9087 19.3219 18.9087C18.5539 18.9087 18.0059 19.2287 17.6779 19.8687H16.5019L17.2579 14.9247H21.9019V16.0407H18.2659L17.8819 18.4887C18.3379 18.0807 18.8699 17.8767 19.4779 17.8767Z" fill="#232323"/>
</svg>
