<svg width="65" height="65" viewBox="0 0 65 65" fill="none" xmlns="http://www.w3.org/2000/svg">
<rect x="0.474976" y="0.476562" width="64.05" height="64.05" rx="32.025" fill="white"/>
<path d="M20.5 44.5C20.5 45.6046 21.3954 46.5 22.5 46.5H26.5C27.6046 46.5 28.5 45.6046 28.5 44.5V20.5C28.5 19.3954 27.6046 18.5 26.5 18.5H22.5C21.3954 18.5 20.5 19.3954 20.5 20.5V44.5ZM38.5 18.5C37.3954 18.5 36.5 19.3954 36.5 20.5V44.5C36.5 45.6046 37.3954 46.5 38.5 46.5H42.5C43.6046 46.5 44.5 45.6046 44.5 44.5V20.5C44.5 19.3954 43.6046 18.5 42.5 18.5H38.5Z" fill="black"/>
</svg>
