<svg width="65" height="65" viewBox="0 0 65 65" fill="none" xmlns="http://www.w3.org/2000/svg">
<rect x="0.474976" y="0.476562" width="64.05" height="64.05" rx="32.025" fill="rgba(255,255,255,0)"/>
<path d="M22.4921 19.9144C22.4918 19.6683 22.5563 19.4265 22.6792 19.2133C22.802 19.0001 22.9789 18.823 23.1919 18.6998C23.405 18.5767 23.6467 18.5118 23.8928 18.5117C24.1388 18.5117 24.3806 18.5764 24.5937 18.6994L46.3907 31.2853C46.6035 31.4083 46.7802 31.5851 46.903 31.798C47.0259 32.0109 47.0905 32.2524 47.0905 32.4982C47.0905 32.744 47.0259 32.9855 46.903 33.1984C46.7802 33.4113 46.6035 33.5881 46.3907 33.7111L24.5937 46.297C24.3807 46.4199 24.1392 46.4847 23.8933 46.4847C23.6474 46.4847 23.4058 46.42 23.1928 46.2971C22.9798 46.1742 22.8029 45.9974 22.6799 45.7844C22.5569 45.5715 22.4921 45.3299 22.4921 45.084V19.9144Z" fill="#ffffff"/>
</svg>
