<svg width="37" height="37" viewBox="0 0 37 37" fill="none" xmlns="http://www.w3.org/2000/svg">
<rect y="37" width="37" height="37" rx="18.5" transform="rotate(-90 0 37)" fill="white"/>
<path fill-rule="evenodd" clip-rule="evenodd" d="M6.71085 22.5002C7.09548 23.1683 8.05948 23.1683 8.44411 22.5002L11.9985 16.3267C12.3823 15.66 11.9011 14.8277 11.1319 14.8277L9.24454 14.8277C9.36662 14.496 9.50558 14.1695 9.66122 13.8495C10.6403 11.8368 12.2297 10.1867 14.2015 9.13549C16.1733 8.08432 18.4264 7.68611 20.6377 7.99793C22.8491 8.30976 24.9053 9.31562 26.5116 10.8713C28.1178 12.4271 29.1917 14.4528 29.5793 16.6582C29.967 18.8635 29.6484 21.1354 28.6693 23.148C27.6902 25.1607 26.1008 26.8109 24.129 27.862C22.489 28.7363 20.6545 29.1589 18.8112 29.097C18.1914 29.0761 17.6229 29.4977 17.5368 30.1119C17.4508 30.7254 17.8784 31.2978 18.497 31.3302C20.8107 31.4514 23.1217 30.9413 25.1798 29.8441C27.569 28.5704 29.4948 26.5709 30.6811 24.1322C31.8675 21.6935 32.2535 18.9408 31.7838 16.2685C31.3142 13.5963 30.0129 11.1418 28.0667 9.25673C26.1204 7.37169 23.6289 6.15291 20.9494 5.77507C18.27 5.39723 15.54 5.87974 13.1507 7.15343C10.7615 8.42712 8.83572 10.4266 7.64937 12.8653C7.34039 13.5005 7.0857 14.1569 6.88627 14.8277L4.0231 14.8277C3.25383 14.8277 2.77264 15.66 3.15647 16.3267L6.71085 22.5002Z" fill="#232323"/>
<path d="M15.8639 14.9247H16.8959V23.4688H15.6119V17.3727H13.6559V16.4247L13.8479 16.4128C14.4639 16.3727 14.9239 16.2447 15.2279 16.0287C15.5399 15.8047 15.7519 15.4367 15.8639 14.9247ZM21.3605 17.8767C22.2725 17.8767 22.9885 18.1487 23.5085 18.6927C24.0205 19.2287 24.2765 19.9127 24.2765 20.7447C24.2765 21.6087 23.9965 22.3087 23.4365 22.8447C22.8685 23.3888 22.1245 23.6608 21.2045 23.6608C20.3645 23.6608 19.6645 23.4248 19.1045 22.9527C18.5605 22.4887 18.2565 21.8607 18.1925 21.0687H19.4405C19.4965 21.5247 19.6845 21.8887 20.0045 22.1607C20.3325 22.4327 20.7325 22.5687 21.2045 22.5687C21.7325 22.5687 22.1605 22.4007 22.4885 22.0647C22.8245 21.7207 22.9925 21.2807 22.9925 20.7447C22.9925 20.2007 22.8245 19.7607 22.4885 19.4247C22.1605 19.0807 21.7325 18.9087 21.2045 18.9087C20.4365 18.9087 19.8885 19.2287 19.5605 19.8687H18.3845L19.1405 14.9247H23.7845V16.0407H20.1485L19.7645 18.4887C20.2205 18.0807 20.7525 17.8767 21.3605 17.8767Z" fill="#232323"/>
</svg>
