<svg width="20" height="20" viewBox="0 0 20 20" fill="none" xmlns="http://www.w3.org/2000/svg">
<g clip-path="url(#clip0_5204_7388)">
<path d="M7.57502 7.49935C7.77094 6.94241 8.15765 6.47277 8.66665 6.17363C9.17565 5.87448 9.7741 5.76513 10.356 5.86494C10.9379 5.96475 11.4657 6.26729 11.8459 6.71896C12.2261 7.17063 12.4342 7.74228 12.4334 8.33268C12.4334 9.99935 9.93335 10.8327 9.93335 10.8327M10 14.166H10.0084M18.3334 9.99935C18.3334 14.6017 14.6024 18.3327 10 18.3327C5.39765 18.3327 1.66669 14.6017 1.66669 9.99935C1.66669 5.39698 5.39765 1.66602 10 1.66602C14.6024 1.66602 18.3334 5.39698 18.3334 9.99935Z" stroke="black" stroke-width="2" stroke-linecap="round" stroke-linejoin="round"/>
</g>
<defs>
<clipPath id="clip0_5204_7388">
<rect width="20" height="20" fill="white"/>
</clipPath>
</defs>
</svg>
