<svg width="25" height="24" viewBox="0 0 25 24" fill="none" xmlns="http://www.w3.org/2000/svg">
<path d="M14.563 21C14.3872 21.3031 14.1349 21.5547 13.8312 21.7295C13.5276 21.9044 13.1834 21.9965 12.833 21.9965C12.4826 21.9965 12.1384 21.9044 11.8348 21.7295C11.5312 21.5547 11.2788 21.3031 11.103 21M18.833 8C18.833 6.4087 18.2009 4.88258 17.0756 3.75736C15.9504 2.63214 14.4243 2 12.833 2C11.2417 2 9.71559 2.63214 8.59037 3.75736C7.46515 4.88258 6.83301 6.4087 6.83301 8C6.83301 15 3.83301 17 3.83301 17H21.833C21.833 17 18.833 15 18.833 8Z" stroke="#F3F3F3" stroke-width="2" stroke-linecap="round" stroke-linejoin="round"/>
</svg>
