<svg width="12" height="12" viewBox="0 0 12 12" fill="none" xmlns="http://www.w3.org/2000/svg">
<path d="M6.58563 11.5725C6.71215 11.5731 6.8352 11.5182 6.93515 11.4166L11.7695 6.61108C11.8412 6.5395 11.8993 6.44719 11.9392 6.3414C11.9792 6.2356 12 6.11914 12 6.00109C12 5.88304 11.9792 5.76658 11.9392 5.66078C11.8993 5.55498 11.8412 5.46274 11.7695 5.39115L6.93515 0.585559C6.8352 0.483953 6.71215 0.429104 6.58564 0.429692C6.50882 0.429367 6.43271 0.448925 6.36167 0.487206C6.29062 0.525486 6.22605 0.581704 6.17164 0.652739C6.11724 0.723774 6.07408 0.808228 6.04462 0.901159C6.01517 0.99409 6 1.09372 6 1.19435L6 10.8079C6 10.9085 6.01517 11.0081 6.04462 11.1011C6.07408 11.194 6.11723 11.2784 6.17164 11.3494C6.22605 11.4205 6.29062 11.4767 6.36166 11.515C6.43271 11.5533 6.50882 11.5729 6.58563 11.5725Z" fill="#F2FAF2"/>
</svg>
