<svg width="20" height="20" viewBox="0 0 20 20" fill="none" xmlns="http://www.w3.org/2000/svg">
<g clip-path="url(#clip0_1420_7541)">
<path d="M13.7499 5.00065V14.584C13.7499 16.4257 12.2583 17.9173 10.4166 17.9173C8.57492 17.9173 7.08325 16.4257 7.08325 14.584V4.16732C7.08325 3.01732 8.01659 2.08398 9.16659 2.08398C10.3166 2.08398 11.2499 3.01732 11.2499 4.16732V12.9173C11.2499 13.3757 10.8749 13.7507 10.4166 13.7507C9.95825 13.7507 9.58325 13.3757 9.58325 12.9173V5.00065H8.33325V12.9173C8.33325 14.0673 9.26659 15.0007 10.4166 15.0007C11.5666 15.0007 12.4999 14.0673 12.4999 12.9173V4.16732C12.4999 2.32565 11.0083 0.833984 9.16659 0.833984C7.32492 0.833984 5.83325 2.32565 5.83325 4.16732V14.584C5.83325 17.1173 7.88325 19.1673 10.4166 19.1673C12.9499 19.1673 14.9999 17.1173 14.9999 14.584V5.00065H13.7499Z" fill="#232323" fill-opacity="0.5"/>
</g>
<defs>
<clipPath id="clip0_1420_7541">
<rect width="20" height="20" fill="white"/>
</clipPath>
</defs>
</svg>
