<svg width="24" height="24" viewBox="0 0 24 24" fill="none" xmlns="http://www.w3.org/2000/svg">
<path d="M3.75 6.49967L6.5 2.83301H17.5L20.25 6.49967M3.75 6.49967V19.333C3.75 19.8192 3.94315 20.2856 4.28697 20.6294C4.63079 20.9732 5.0971 21.1663 5.58333 21.1663H18.4167C18.9029 21.1663 19.3692 20.9732 19.713 20.6294C20.0568 20.2856 20.25 19.8192 20.25 19.333V6.49967M3.75 6.49967H20.25M15.6667 10.1663C15.6667 11.1388 15.2804 12.0714 14.5927 12.7591C13.9051 13.4467 12.9725 13.833 12 13.833C11.0275 13.833 10.0949 13.4467 9.40728 12.7591C8.71964 12.0714 8.33333 11.1388 8.33333 10.1663" stroke="#F2FAF2" stroke-width="2" stroke-linecap="round" stroke-linejoin="round"/>
</svg>
