<svg width="20" height="21" viewBox="0 0 20 21" fill="none" xmlns="http://www.w3.org/2000/svg">
<path d="M17.0736 3.42648C16.1454 2.49689 15.0426 1.75982 13.8287 1.25762C12.6148 0.755411 11.3137 0.497936 10 0.500012C8.68632 0.497936 7.38519 0.755411 6.1713 1.25762C4.9574 1.75982 3.85463 2.49689 2.9264 3.42648C1.99681 4.35471 1.25973 5.45741 0.757526 6.6713C0.255317 7.88519 -0.00206387 9.18633 1.2463e-05 10.5C-0.00206387 11.8137 0.255317 13.1148 0.757526 14.3287C1.25973 15.5426 1.99681 16.6453 2.9264 17.5735C3.85463 18.5031 4.9574 19.2402 6.1713 19.7424C7.38519 20.2446 8.68632 20.5021 10 20.5C11.3137 20.5021 12.6148 20.2446 13.8287 19.7424C15.0426 19.2402 16.1454 18.5031 17.0736 17.5735C18.0032 16.6453 18.7403 15.5426 19.2425 14.3287C19.7447 13.1148 20.0021 11.8137 20 10.5C20.0021 9.18633 19.7447 7.88519 19.2425 6.6713C18.7403 5.45741 18.0032 4.35471 17.0736 3.42648ZM15.8686 7.20842L9.17053 15.9408C9.06028 16.0897 8.91947 16.2132 8.75752 16.3032C8.59557 16.3932 8.41632 16.4475 8.23166 16.4624C8.04863 16.4783 7.86431 16.4543 7.69142 16.3922C7.51853 16.33 7.36109 16.2312 7.23001 16.1025L4.00103 12.9726C3.7521 12.7321 3.60848 12.4029 3.60164 12.0568C3.5948 11.7108 3.72525 11.3761 3.96448 11.126C4.20566 10.8778 4.5354 10.7351 4.88144 10.7293C5.22748 10.7234 5.56168 10.8548 5.81114 11.0947L7.9916 13.1813L13.7976 5.60696C13.9016 5.4704 14.0315 5.3557 14.1798 5.26944C14.3282 5.18318 14.4921 5.12707 14.6622 5.10429C14.8323 5.08151 15.0052 5.09251 15.171 5.1367C15.3369 5.18089 15.4924 5.25737 15.6286 5.36177C15.7664 5.46665 15.882 5.59786 15.9688 5.74775C16.0556 5.89764 16.1118 6.06323 16.1341 6.23498C16.1564 6.40673 16.1444 6.58123 16.0988 6.74832C16.0532 6.91541 15.975 7.0718 15.8686 7.20842Z" fill="#E8FC66"/>
</svg>
