<svg width="10" height="11" viewBox="0 0 10 11" fill="none" xmlns="http://www.w3.org/2000/svg">
<path d="M10 7.01197C10.0005 6.90654 9.95125 6.804 9.86006 6.72071L5.5474 2.69208C5.48316 2.63236 5.40033 2.58396 5.30538 2.55064C5.21043 2.51732 5.10591 2.5 4.99997 2.5C4.89403 2.5 4.78951 2.51732 4.69457 2.55064C4.59962 2.58396 4.51684 2.63236 4.4526 2.69208L0.139885 6.72071C0.0487 6.804 -0.00052404 6.90654 4.18595e-06 7.01197C-0.000288048 7.07599 0.0172647 7.13941 0.051619 7.19861C0.0859733 7.25781 0.136425 7.31163 0.200174 7.35696C0.263924 7.4023 0.339716 7.43827 0.423116 7.46281C0.506515 7.48736 0.595931 7.5 0.686232 7.5L9.31377 7.5C9.40407 7.5 9.49348 7.48736 9.57688 7.46281C9.66028 7.43827 9.73602 7.4023 9.79977 7.35696C9.86352 7.31162 9.91403 7.25781 9.94838 7.19861C9.98274 7.13941 10.0003 7.07599 10 7.01197Z" fill="#F2FAF2"/>
</svg>
