<svg width="10" height="11" viewBox="0 0 10 11" fill="none" xmlns="http://www.w3.org/2000/svg">
<path d="M10 3.98803C10.0005 4.09346 9.95125 4.196 9.86006 4.27929L5.5474 8.30792C5.48316 8.36764 5.40033 8.41604 5.30538 8.44936C5.21043 8.48268 5.10591 8.5 4.99997 8.5C4.89403 8.5 4.78951 8.48268 4.69457 8.44936C4.59962 8.41604 4.51684 8.36764 4.4526 8.30792L0.139885 4.27929C0.0487 4.196 -0.00052404 4.09346 4.18595e-06 3.98803C-0.000288048 3.92401 0.0172647 3.86059 0.051619 3.80139C0.0859733 3.74219 0.136425 3.68837 0.200174 3.64304C0.263924 3.5977 0.339716 3.56173 0.423116 3.53719C0.506515 3.51264 0.595931 3.5 0.686232 3.5L9.31377 3.5C9.40407 3.5 9.49348 3.51264 9.57688 3.53719C9.66028 3.56173 9.73602 3.5977 9.79977 3.64304C9.86352 3.68838 9.91403 3.74219 9.94838 3.80139C9.98274 3.86059 10.0003 3.92401 10 3.98803Z" fill="#F2FAF2"/>
</svg>
