<svg width="60" height="60" viewBox="0 0 60 60" fill="none" xmlns="http://www.w3.org/2000/svg">
<path fill-rule="evenodd" clip-rule="evenodd" d="M41.4861 2.27285C45.1278 3.77947 48.4361 5.99067 51.2208 8.77944C54.0096 11.5641 56.2208 14.8722 57.7274 18.5139C59.234 22.1556 60.0062 26.059 60 30C60.0062 33.941 59.234 37.8444 57.7274 41.4861C56.2208 45.1278 54.0096 48.4359 51.2208 51.2206C48.4361 54.0094 45.1278 56.2206 41.4861 57.7272C37.8444 59.2338 33.941 60.0062 30 60C26.059 60.0062 22.1556 59.2338 18.5139 57.7272C14.8722 56.2206 11.5639 54.0094 8.77919 51.2206C5.99042 48.4359 3.7792 45.1278 2.27258 41.4861C0.765951 37.8444 -0.00619161 33.941 3.73889e-05 30C-0.00619161 26.059 0.765951 22.1556 2.27258 18.5139C3.7792 14.8722 5.99042 11.5641 8.77919 8.77944C11.5639 5.99067 14.8722 3.77947 18.5139 2.27285C22.1556 0.766233 26.059 -0.00619159 30 3.7375e-05C33.941 -0.00619159 37.8444 0.766233 41.4861 2.27285ZM20.5102 15.4898C19.1239 14.1034 16.8761 14.1034 15.4898 15.4898C14.1034 16.8761 14.1034 19.1239 15.4898 20.5102L25.2295 30.25L15.4898 39.9898C14.1034 41.3761 14.1034 43.6239 15.4898 45.0102C16.8761 46.3966 19.1239 46.3966 20.5102 45.0102L30.25 35.2705L39.9898 45.0102C41.3761 46.3966 43.6239 46.3966 45.0102 45.0102C46.3966 43.6239 46.3966 41.3761 45.0102 39.9898L35.2705 30.25L45.0102 20.5102C46.3966 19.1239 46.3966 16.8761 45.0102 15.4898C43.6239 14.1034 41.3761 14.1034 39.9898 15.4898L30.25 25.2295L20.5102 15.4898Z" fill="#F34747"/>
</svg>
