<svg width="31" height="30" viewBox="0 0 31 30" fill="none" xmlns="http://www.w3.org/2000/svg">
<circle cx="15.5" cy="15" r="15" fill="#E8FC66"/>
<path d="M16.3586 22.7913L22.2351 19.4767M13.1388 10.2098L19.507 21.0155M15.7887 8.28568C15.8853 8.45215 15.8226 8.66813 15.6486 8.76809L10.3711 11.7996C10.1971 11.8996 9.97771 11.8457 9.88111 11.6792C7.70317 7.92597 9.12025 6.48969 10.3862 5.76251C11.6521 5.03532 13.6072 4.52618 15.7887 8.28568ZM15.9636 8.5871L22.1452 19.2397C22.2204 19.3694 22.257 19.518 22.2489 19.6676C22.147 21.5555 21.8866 23.2098 21.7138 24.1494C21.6318 24.5955 21.1802 24.8573 20.7499 24.7078C19.8413 24.392 18.262 23.7956 16.5584 22.9366C16.424 22.8688 16.3128 22.7629 16.2374 22.633L10.056 11.9806L15.9636 8.5871Z" stroke="#252525" stroke-linecap="round"/>
</svg>
