<svg width="172" height="209" viewBox="0 0 172 209" fill="none" xmlns="http://www.w3.org/2000/svg">
<path d="M42.2587 103.467C40.4142 101.507 38.5637 99.5418 36.7193 97.5824C36.6044 97.4675 36.4895 97.3526 36.3867 97.2317C36.3081 97.1349 36.2355 97.0563 36.1569 96.9777C36.0964 96.8991 36.0178 96.8265 35.9633 96.7237C35.8847 96.6874 35.8122 96.6269 35.7517 96.5483C30.8775 91.3839 25.9971 86.2072 21.135 81.0359C20.1976 82.3542 19.7804 83.8721 19.7562 85.6562C19.5445 107.946 19.7562 130.238 19.7562 152.528C19.7562 155.83 19.7199 159.132 19.7562 162.44C19.7804 164.224 20.2763 165.784 21.1592 167.048L62.8864 125.321C56.0286 118.034 49.1466 110.747 42.2651 103.46L42.2587 103.467Z" fill="#534C60"/>
<path d="M101.536 133.473C99.5764 135.572 97.6291 137.713 95.6273 139.775C95.6032 139.799 95.5911 139.811 95.5669 139.835C93.4261 141.795 91.0978 143.391 88.4733 144.05C88.4128 144.05 88.3584 144.075 88.2979 144.087C86.7618 144.377 85.1895 144.401 83.6172 144.087C83.3632 144.026 83.1092 143.972 82.8613 143.893C82.6073 143.833 82.3533 143.754 82.0872 143.639C81.9904 143.615 81.8755 143.579 81.7728 143.542C81.5067 143.428 81.2285 143.331 80.9745 143.192C80.7991 143.131 80.6237 143.041 80.4665 142.938C80.2367 142.823 80.019 142.684 79.8073 142.545C79.6683 142.484 79.5534 142.406 79.4384 142.315C79.2268 142.176 79.0091 142.025 78.8156 141.867C77.0437 140.549 75.6104 138.819 74.0744 137.199C71.5284 134.502 68.9642 131.78 66.4183 129.077C66.3578 128.998 66.2792 128.938 66.2248 128.865C64.9609 130.129 63.697 131.393 62.4391 132.651L25.2046 169.885C25.9424 170.079 26.7225 170.2 27.557 170.2C34.7655 170.26 41.956 170.2 49.1459 170.2H127.08C133.049 170.2 139.072 170.412 145.035 170.2C145.694 170.176 146.317 170.085 146.922 169.91L105.878 128.865C104.438 130.401 102.981 131.937 101.547 133.473L101.536 133.473Z" fill="#534C60"/>
<path d="M150.974 81.0359C146.1 86.2004 141.22 91.377 136.345 96.5483L136.285 96.6088C136.261 96.6451 136.224 96.6693 136.206 96.7056C133.388 99.681 130.588 102.65 127.77 105.65C127.377 106.055 126.996 106.46 126.621 106.877C126.155 107.361 125.684 107.827 125.242 108.317C119.902 113.995 114.55 119.668 109.211 125.346C110.511 126.646 111.793 127.929 113.1 129.235C125.715 141.85 138.342 154.477 150.957 167.092C151.791 165.924 152.275 164.509 152.335 162.931C152.36 162.326 152.335 161.703 152.335 161.086V85.1963C152.275 83.5998 151.815 82.2452 150.981 81.0598L150.974 81.0359Z" fill="#534C60"/>
<path d="M39.8883 93.8632C46.7098 101.09 53.5133 108.304 60.3347 115.537C65.3722 120.901 70.4218 126.241 75.4714 131.605L75.4956 131.63C78.3924 134.72 81.7365 139.485 86.1874 139.485C86.381 139.485 86.5805 139.485 86.768 139.461C86.8648 139.461 86.9615 139.461 87.0583 139.437C87.2518 139.413 87.4514 139.376 87.663 139.322C88.1468 139.207 88.6729 139.032 89.1991 138.778C89.3382 138.717 89.4531 138.663 89.568 138.566C89.7433 138.487 89.9006 138.391 90.0518 138.276C90.2453 138.161 90.4207 138.022 90.5718 137.883C92.4344 136.504 94.0129 134.478 95.5671 132.73C96.8854 131.315 98.2098 129.912 99.5523 128.491C110.438 116.946 121.299 105.402 132.203 93.8574V38.5777C132.064 34.3625 128.858 31.4296 124.722 31.2905C123.537 31.2543 122.333 31.2905 121.142 31.2905H50.1084C49.171 31.2905 48.2458 31.2663 47.3084 31.2905C43.7888 31.4054 40.6441 33.6611 39.9969 37.2775C39.4527 40.3133 39.882 43.7664 39.882 46.8386V93.8698L39.8883 93.8632ZM50.8463 42.6535H121.239C124.366 42.6535 124.366 47.5096 121.239 47.5096H50.8463C47.7198 47.5096 47.7198 42.6535 50.8463 42.6535ZM50.8463 56.3933H121.239C124.366 56.3933 124.366 61.2494 121.239 61.2494H50.8463C47.7198 61.2494 47.7198 56.3933 50.8463 56.3933ZM50.8463 70.109H121.239C124.366 70.109 124.366 74.9651 121.239 74.9651H50.8463C47.7198 74.9651 47.7198 70.109 50.8463 70.109ZM50.8463 83.8247H121.239C124.366 83.8247 124.366 88.6808 121.239 88.6808L50.8463 88.6868C47.7198 88.6868 47.7198 83.8307 50.8463 83.8307V83.8247Z" fill="#F2FAF2"/>
<path d="M137.058 66.189V88.6496C140.535 84.882 144.018 81.0842 147.647 77.4134C144.115 73.664 140.589 69.9328 137.058 66.1773V66.189Z" fill="#534C60"/>
<path d="M97.043 23.7482C95.1804 21.7647 93.336 19.7266 91.4249 17.7793C88.2198 14.5378 83.4907 14.8282 80.4246 18.0333C77.7636 20.8151 75.139 23.6272 72.4963 26.4332H99.5642C98.7296 25.5382 97.8951 24.6493 97.0363 23.7481L97.043 23.7482Z" fill="#534C60"/>
<path d="M35.032 88.656V66.1954L35.0079 66.2196C31.4883 69.951 27.9505 73.7003 24.4309 77.4316C28.0231 81.0662 31.4883 84.8336 34.9232 88.565L35.0199 88.6617L35.032 88.656Z" fill="#534C60"/>
</svg>
