<svg width="20" height="21" viewBox="0 0 20 21" fill="none" xmlns="http://www.w3.org/2000/svg">
<path fill-rule="evenodd" clip-rule="evenodd" d="M10 4.8418C5.90909 4.8418 2.41545 7.38634 1 10.9782C2.41545 14.57 5.90909 17.1145 10 17.1145C14.0909 17.1145 17.5845 14.57 19 10.9782C17.5845 7.38634 14.0909 4.8418 10 4.8418ZM9.99983 15.0692C7.74165 15.0692 5.90892 13.2364 5.90892 10.9782C5.90892 8.72006 7.74165 6.88734 9.99983 6.88734C12.258 6.88734 14.0907 8.72006 14.0907 10.9782C14.0907 13.2364 12.258 15.0692 9.99983 15.0692ZM7.54554 10.978C7.54554 9.61985 8.6419 8.52349 10.0001 8.52349C11.3583 8.52349 12.4546 9.61985 12.4546 10.978C12.4546 12.3362 11.3583 13.4326 10.0001 13.4326C8.6419 13.4326 7.54554 12.3362 7.54554 10.978Z" fill="#232323"/>
</svg>
