<svg width="20" height="21" viewBox="0 0 20 21" fill="none" xmlns="http://www.w3.org/2000/svg">
<path fill-rule="evenodd" clip-rule="evenodd" d="M2.39909 4.89359C2.08 4.57435 2.08 4.05866 2.39909 3.73943C2.71818 3.42019 3.24182 3.42019 3.56091 3.73943L16.9055 17.1064C17.2246 17.4256 17.2246 17.9413 16.9055 18.2606C16.5864 18.5798 16.0709 18.5798 15.7518 18.2606L13.5264 16.0341C12.43 16.4598 11.2436 16.7053 10 16.7053C5.90909 16.7053 2.41545 14.1596 1 10.5662C1.63 8.95361 2.68546 7.56207 4.01091 6.50614L2.39909 4.89359ZM14.0906 10.5657C14.0906 8.30646 12.2578 6.4729 9.99967 6.4729C9.58239 6.4729 9.18149 6.55475 8.79694 6.66935L7.02148 4.89309C7.96239 4.59022 8.96058 4.42651 9.99967 4.42651C14.0906 4.42651 17.5842 6.97222 18.9997 10.5575C18.4351 11.9981 17.5351 13.2587 16.3979 14.2655L13.8942 11.7608C14.0088 11.3842 14.0906 10.9831 14.0906 10.5657ZM10.0001 14.6591C7.74191 14.6591 5.90918 12.8256 5.90918 10.5663C5.90918 9.93605 6.05645 9.33851 6.31009 8.81464L7.59463 10.0998C7.57009 10.2471 7.54554 10.4026 7.54554 10.5663C7.54554 11.9251 8.64191 13.022 10.0001 13.022C10.1637 13.022 10.311 12.9974 10.4665 12.9647L11.751 14.2498C11.2192 14.5118 10.6301 14.6591 10.0001 14.6591ZM12.43 10.2958C12.3073 9.14986 11.4073 8.25764 10.27 8.13486L12.43 10.2958Z" fill="#232323"/>
</svg>
