<svg width="8" height="11" viewBox="0 0 8 11" fill="none" xmlns="http://www.w3.org/2000/svg">
<path d="M1.76675 2.67263C2.20903 2.02706 2.62646 1.4396 2.76623 0.716574C2.76623 0.716574 2.76623 0.716574 2.76623 0.701511C2.62275 0.532411 2.4583 0.387459 2.27799 0.271136C2.26049 0.257565 2.24013 0.249345 2.21895 0.247282C2.19777 0.245219 2.17647 0.249385 2.15716 0.25937C2.13784 0.269356 2.12121 0.284818 2.10882 0.304235C2.09644 0.323653 2.08874 0.346359 2.08653 0.370123C2.06584 0.506598 2.03832 0.64166 2.00416 0.774674C1.94427 0.995374 1.85101 1.20283 1.72847 1.38796C1.49871 1.73441 1.21535 2.04643 0.962618 2.37567C0.361425 3.1611 -0.0999877 4.1316 0.0187192 5.19893C0.0537471 5.51777 0.141424 5.82647 0.277213 6.10917C0.423735 5.11261 0.777278 4.16894 1.30918 3.35477C1.45469 3.12237 1.61358 2.89427 1.76675 2.67263Z" fill="#232323"/>
<path d="M7.12199 3.05996C7.11701 3.05815 7.11163 3.05815 7.10666 3.05996C7.10782 3.20518 7.09172 3.34991 7.05879 3.49034C7.01824 3.62397 6.95299 3.74644 6.86733 3.8497C6.79579 3.9431 6.70783 4.01885 6.60897 4.07218C6.51012 4.1255 6.40252 4.15526 6.29294 4.15957C6.12131 4.15758 5.95585 4.08746 5.82578 3.9616C5.42945 3.59148 5.35094 2.95883 5.23606 2.42947C5.11896 1.89638 4.89366 1.40099 4.57777 0.982117C4.26187 0.563242 3.86397 0.232249 3.41525 0.0150632C3.39669 0.00520414 3.37641 6.13122e-05 3.35588 1.5727e-07C3.31858 -5.79463e-05 3.2827 0.0159858 3.25562 0.0448183C3.22854 0.0736507 3.21233 0.11307 3.21037 0.154935C3.19569 0.375964 3.16949 0.595832 3.13189 0.813408C2.92128 1.91086 2.17459 2.72212 1.61552 3.61084C0.976031 4.63298 0.527993 5.88107 0.642871 7.15067C0.784553 8.71939 1.77249 9.86634 2.98062 10.3785C2.756 10.1954 2.56839 9.961 2.43012 9.69063C2.29186 9.42026 2.20608 9.12006 2.17841 8.80977C2.14211 8.06263 2.33992 7.32481 2.73746 6.7246C3.05529 6.2017 3.48609 5.72398 3.60863 5.07842C3.63056 4.95048 3.64526 4.82111 3.65266 4.69108C3.65302 4.67549 3.65683 4.66024 3.66369 4.64669C3.67056 4.63314 3.68027 4.6217 3.69202 4.6134C3.70376 4.60509 3.71716 4.60018 3.731 4.59909C3.74485 4.598 3.75873 4.60078 3.77139 4.60716C4.03006 4.73888 4.2583 4.93565 4.43856 5.18228C4.61883 5.4289 4.74627 5.71879 4.81102 6.02955C4.87612 6.33942 4.92207 6.71384 5.14991 6.93118C5.46391 7.23029 5.87935 6.90967 5.88127 6.47714V6.43195L5.89851 6.40398C5.94104 6.47982 5.9788 6.55891 6.01149 6.64068V6.65144C6.2015 7.10489 6.30869 7.59654 6.32678 8.09735C6.34487 8.59816 6.27349 9.09796 6.11681 9.56723C6.04332 9.76981 5.94257 9.9585 5.81812 10.1267C5.71091 10.2699 5.58727 10.3966 5.45048 10.5033C6.0464 10.3053 6.57845 9.9174 6.98218 9.38647C7.19856 9.10126 7.37488 8.7805 7.50491 8.43534C7.61994 8.12782 7.7084 7.8086 7.76911 7.48206C7.83004 7.15187 7.86528 6.81635 7.87442 6.47929C7.88428 6.14001 7.87021 5.80038 7.83231 5.46361C7.79521 5.1282 7.73501 4.79654 7.6523 4.47159C7.57154 4.15138 7.46783 3.83905 7.34215 3.53768C7.30769 3.45806 7.2713 3.37414 7.23492 3.29452L7.17556 3.16756C7.16491 3.12771 7.14665 3.09098 7.12199 3.05996Z" fill="#232323"/>
</svg>
