<svg width="10" height="11" viewBox="0 0 10 11" fill="none" xmlns="http://www.w3.org/2000/svg">
<path d="M3.34567 3.7901C3.68254 3.23694 4.00049 2.73356 4.10694 2.11401C4.10694 2.11401 4.10694 2.11401 4.10694 2.10111C3.99766 1.95621 3.8724 1.832 3.73507 1.73233C3.72174 1.7207 3.70623 1.71366 3.6901 1.71189C3.67397 1.71012 3.65774 1.71369 3.64303 1.72225C3.62832 1.7308 3.61565 1.74405 3.60622 1.76069C3.59678 1.77733 3.59093 1.79679 3.58924 1.81715C3.57348 1.93409 3.55252 2.04982 3.5265 2.1638C3.48088 2.35291 3.40985 2.53068 3.31652 2.68931C3.14152 2.98617 2.92569 3.25353 2.73319 3.53565C2.27528 4.20867 1.92384 5.04026 2.01426 5.95482C2.04094 6.22803 2.10772 6.49255 2.21114 6.73479C2.32274 5.88087 2.59203 5.07226 2.99716 4.37462C3.10799 4.17548 3.22901 3.98002 3.34567 3.7901Z" fill="#F2FAF2"/>
<path d="M7.42457 4.122C7.42078 4.12045 7.41669 4.12045 7.4129 4.122C7.41378 4.24643 7.40152 4.37046 7.37644 4.49078C7.34555 4.60528 7.29586 4.71022 7.23061 4.79871C7.17612 4.87874 7.10912 4.94365 7.03383 4.98934C6.95854 5.03504 6.87658 5.06053 6.79312 5.06423C6.6624 5.06252 6.53637 5.00243 6.4373 4.89459C6.13543 4.57744 6.07563 4.03534 5.98813 3.58175C5.89894 3.12495 5.72733 2.70047 5.48673 2.34155C5.24612 1.98263 4.94305 1.69901 4.60128 1.51291C4.58714 1.50446 4.5717 1.50005 4.55606 1.5C4.52765 1.49995 4.50032 1.5137 4.47969 1.5384C4.45907 1.56311 4.44672 1.59689 4.44523 1.63276C4.43405 1.82215 4.4141 2.01055 4.38545 2.19699C4.22504 3.13737 3.65631 3.83251 3.23048 4.59404C2.74341 5.46988 2.40215 6.53934 2.48965 7.62723C2.59757 8.97142 3.35005 9.95421 4.27024 10.3931C4.09915 10.2362 3.95625 10.0353 3.85094 9.80365C3.74563 9.57198 3.68029 9.31474 3.65922 9.04886C3.63157 8.40866 3.78223 7.77644 4.08503 7.26214C4.32711 6.81407 4.65524 6.40473 4.74857 5.85157C4.76527 5.74194 4.77647 5.63108 4.78211 5.51967C4.78238 5.50631 4.78528 5.49324 4.79051 5.48163C4.79574 5.47002 4.80314 5.46022 4.81208 5.4531C4.82103 5.44599 4.83123 5.44178 4.84178 5.44084C4.85232 5.43991 4.8629 5.44229 4.87254 5.44776C5.06956 5.56063 5.2434 5.72923 5.3807 5.94056C5.518 6.15189 5.61507 6.40028 5.66439 6.66656C5.71397 6.93208 5.74897 7.25292 5.92251 7.43915C6.16167 7.69545 6.4781 7.42071 6.47956 7.05009V7.01137L6.4927 6.9874C6.52508 7.05239 6.55385 7.12016 6.57875 7.19023V7.19945C6.72347 7.588 6.80512 8.00928 6.81889 8.43841C6.83267 8.86754 6.7783 9.29581 6.65896 9.69791C6.60299 9.8715 6.52625 10.0332 6.43146 10.1773C6.3498 10.3 6.25563 10.4085 6.15144 10.5C6.60533 10.3304 7.01058 9.99796 7.31809 9.54302C7.4829 9.29863 7.61719 9.02378 7.71624 8.72803C7.80385 8.46452 7.87122 8.19099 7.91747 7.91119C7.96387 7.62826 7.99072 7.34075 7.99768 7.05194C8.00519 6.76122 7.99447 6.4702 7.9656 6.18162C7.93735 5.89423 7.89149 5.61003 7.82849 5.33159C7.76698 5.05721 7.68799 4.78958 7.59227 4.53135C7.56602 4.46312 7.5383 4.39121 7.51059 4.32299L7.46538 4.2142C7.45727 4.18006 7.44336 4.14858 7.42457 4.122Z" fill="#F2FAF2"/>
</svg>
