<svg width="24" height="24" viewBox="0 0 24 24" fill="none" xmlns="http://www.w3.org/2000/svg">
<path d="M11.2302 21.7426L11.8975 22.3444L12.567 21.7451L14.0025 20.4601L14.0046 20.4581L14.0928 20.3787C16.5841 18.1356 18.7323 16.2014 20.2511 14.3603C21.7989 12.484 22.8 10.5805 22.8 8.3951C22.8 4.8129 19.9478 2 16.355 2C14.7037 2 13.1153 2.61882 11.9 3.64676C10.6847 2.61882 9.09634 2 7.445 2C3.85222 2 1 4.8129 1 8.3951C1 10.5806 2.00106 12.484 3.54913 14.3594C5.07314 16.2055 7.2307 18.144 9.73272 20.392L9.79471 20.4477L9.79616 20.449L11.2302 21.7426Z" fill="#FF4040" stroke="#FF4040" stroke-width="2"/>
</svg>
