<svg width="24" height="23" viewBox="0 0 24 23" fill="none" xmlns="http://www.w3.org/2000/svg">
<path d="M11.2302 20.7426L11.8975 21.3444L12.567 20.7451L14.0025 19.4601L14.0046 19.4581L14.0928 19.3787C16.5841 17.1356 18.7323 15.2014 20.2511 13.3603C21.7989 11.484 22.8 9.58054 22.8 7.3951C22.8 3.8129 19.9478 1 16.355 1C14.7037 1 13.1153 1.61882 11.9 2.64676C10.6847 1.61882 9.09634 1 7.445 1C3.85222 1 1 3.8129 1 7.3951C1 9.58055 2.00106 11.484 3.54913 13.3594C5.07314 15.2055 7.2307 17.144 9.73272 19.392L9.79471 19.4477L9.79616 19.449L11.2302 20.7426Z" stroke="#F2FAF2" stroke-width="2"/>
</svg>
