<svg width="36" height="36" viewBox="0 0 36 36" fill="none" xmlns="http://www.w3.org/2000/svg">
<circle cx="18" cy="18" r="18" fill="#D9D9D9"/>
<path d="M18.2439 15.1003C18.6436 15.1003 19.0394 15.0213 19.4087 14.8679C19.7779 14.7145 20.1133 14.4897 20.3958 14.2063C20.6783 13.923 20.9024 13.5866 21.0551 13.2164C21.2078 12.8461 21.2862 12.4494 21.2859 12.0488C21.2859 11.2402 20.9654 10.4647 20.3949 9.89293C19.8244 9.32118 19.0507 9 18.2439 9C17.4371 9 16.6635 9.32118 16.093 9.89293C15.5225 10.4647 15.202 11.2402 15.202 12.0488C15.202 12.8576 15.5224 13.6334 16.0928 14.2055C16.6632 14.7777 17.4369 15.0995 18.2439 15.1003Z" fill="white"/>
<path d="M25.4878 23.9919C25.4871 22.0668 24.7236 20.2209 23.3652 18.8599C22.0068 17.4989 20.1646 16.7344 18.2439 16.7344C16.3232 16.7344 14.4812 17.4989 13.1228 18.8599C11.7643 20.2209 11.0007 22.0668 11 23.9919C11 28.0027 25.4878 28.0027 25.4878 23.9919Z" fill="white"/>
</svg>
