<svg width="31" height="30" viewBox="0 0 31 30" fill="none" xmlns="http://www.w3.org/2000/svg">
<path d="M13.5708 16.7631C14.0833 17.2506 14.0833 18.0506 13.5708 18.5381C13.0833 19.0256 12.2833 19.0256 11.7958 18.5381C10.6251 17.3656 9.96747 15.7764 9.96747 14.1194C9.96747 12.4624 10.6251 10.8732 11.7958 9.70063L16.2208 5.27563C17.3934 4.10485 18.9826 3.44727 20.6396 3.44727C22.2966 3.44727 23.8858 4.10485 25.0583 5.27563C26.2291 6.44816 26.8867 8.03741 26.8867 9.69438C26.8867 11.3514 26.2291 12.9406 25.0583 14.1131L23.1958 15.9756C23.2083 14.9506 23.0458 13.9256 22.6958 12.9506L23.2833 12.3506C23.6338 12.004 23.9119 11.5913 24.1018 11.1364C24.2917 10.6815 24.3894 10.1935 24.3894 9.70063C24.3894 9.20773 24.2917 8.71971 24.1018 8.26484C23.9119 7.80997 23.6338 7.39727 23.2833 7.05063C22.9367 6.70021 22.524 6.42202 22.0691 6.23215C21.6142 6.04229 21.1262 5.94453 20.6333 5.94453C20.1404 5.94453 19.6524 6.04229 19.1975 6.23215C18.7427 6.42202 18.33 6.70021 17.9833 7.05063L13.5708 11.4631C13.2204 11.8098 12.9422 12.2225 12.7524 12.6773C12.5625 13.1322 12.4647 13.6202 12.4647 14.1131C12.4647 14.606 12.5625 15.094 12.7524 15.5489C12.9422 16.0038 13.2204 16.4165 13.5708 16.7631ZM17.0958 11.4631C17.5833 10.9756 18.3833 10.9756 18.8708 11.4631C20.0416 12.6357 20.6992 14.2249 20.6992 15.8819C20.6992 17.5389 20.0416 19.1281 18.8708 20.3006L14.4458 24.7256C13.2733 25.8964 11.6841 26.554 10.0271 26.554C8.37011 26.554 6.78087 25.8964 5.60833 24.7256C4.43756 23.5531 3.77997 21.9639 3.77997 20.3069C3.77997 18.6499 4.43756 17.0607 5.60833 15.8881L7.47083 14.0256C7.45833 15.0506 7.62083 16.0756 7.97083 17.0631L7.38333 17.6506C7.03291 17.9973 6.75472 18.41 6.56486 18.8648C6.375 19.3197 6.27724 19.8077 6.27724 20.3006C6.27724 20.7935 6.375 21.2815 6.56486 21.7364C6.75472 22.1913 7.03291 22.604 7.38333 22.9506C7.72997 23.3011 8.14267 23.5792 8.59754 23.7691C9.05242 23.959 9.54043 24.0567 10.0333 24.0567C10.5262 24.0567 11.0142 23.959 11.4691 23.7691C11.924 23.5792 12.3367 23.3011 12.6833 22.9506L17.0958 18.5381C17.4463 18.1915 17.7244 17.7788 17.9143 17.3239C18.1042 16.869 18.2019 16.381 18.2019 15.8881C18.2019 15.3952 18.1042 14.9072 17.9143 14.4523C17.7244 13.9975 17.4463 13.5848 17.0958 13.2381C16.9744 13.1244 16.8777 12.9869 16.8115 12.8343C16.7453 12.6816 16.7112 12.517 16.7112 12.3506C16.7112 12.1843 16.7453 12.0197 16.8115 11.867C16.8777 11.7143 16.9744 11.5769 17.0958 11.4631Z" fill="white"/>
</svg>
