<svg width="11" height="11" viewBox="0 0 11 11" fill="none" xmlns="http://www.w3.org/2000/svg">
<path d="M9.66669 5.92045C9.66669 6.07115 9.59906 6.21567 9.47871 6.32223C9.35836 6.42878 9.19514 6.48864 9.02494 6.48864C8.99106 6.48791 8.9573 6.48507 8.92388 6.48012H8.89176C8.35939 6.39825 7.86454 6.18336 7.46549 5.86079L8.06713 4.74147C8.18357 4.9057 8.33826 5.04605 8.52087 5.15309C8.70348 5.26014 8.9098 5.33143 9.12603 5.36221C9.27735 5.3835 9.41506 5.45204 9.51428 5.55541C9.61204 5.65741 9.66601 5.78668 9.66669 5.92045Z" fill="white"/>
<path d="M5.1087 7.33097C4.93905 7.44792 4.7543 7.54662 4.55837 7.625C4.1403 7.78719 3.688 7.86856 3.23159 7.86365C2.85145 7.86461 2.47316 7.81676 2.10853 7.7216C1.9481 7.67504 1.81486 7.57437 1.73768 7.44143C1.6605 7.30848 1.64559 7.15397 1.6962 7.01137C1.73034 6.91884 1.79076 6.83563 1.87167 6.76971C1.95258 6.7038 2.05125 6.65739 2.15824 6.63495C2.43419 6.57671 2.70052 6.70171 2.97006 6.7287C3.25865 6.75706 3.55075 6.73289 3.82841 6.65768C4.00275 6.61244 4.166 6.53873 4.30972 6.44035C4.34882 6.553 4.40266 6.66122 4.47016 6.76279C4.62897 6.99443 4.84787 7.18921 5.1087 7.33097Z" fill="white"/>
<path d="M9.43565 9.28693C9.43565 9.34344 9.41028 9.39764 9.36514 9.43759C9.32001 9.47755 9.25882 9.5 9.19499 9.5H4.06101C3.99718 9.5 3.93595 9.47755 3.89082 9.43759C3.84568 9.39764 3.82035 9.34344 3.82035 9.28693C3.82035 9.23042 3.84568 9.17624 3.89082 9.13629C3.93595 9.09633 3.99718 9.07386 4.06101 9.07386H7.26975C7.30665 9.07386 7.31949 9.06535 7.31628 9.02842C7.305 8.81559 7.27928 8.60357 7.23927 8.39348C7.18626 8.1461 7.08412 7.909 6.93763 7.69319C6.85651 7.57665 6.75832 7.47014 6.64563 7.37643C6.60873 7.3466 6.56862 7.31677 6.5269 7.28694C6.37284 7.18029 6.19841 7.09899 6.01191 7.04689C5.61242 6.92757 5.25306 6.81393 5.02523 6.47871C4.94152 6.35448 4.88814 6.21609 4.86852 6.07248C4.8489 5.92886 4.86348 5.78322 4.91133 5.6449C4.96588 5.5199 5.0477 5.39773 5.11348 5.27699L5.65092 4.27131C5.66536 4.24433 5.75041 4.02557 5.78571 4.01847C5.6543 4.0409 5.52505 4.07224 5.39907 4.11222C4.95756 4.25922 4.55303 4.48172 4.2086 4.76705C4.14602 4.81705 4.07294 4.85565 3.99352 4.88064C3.9141 4.90563 3.82991 4.91651 3.74573 4.91269C3.66156 4.90886 3.57904 4.8904 3.50292 4.85834C3.42681 4.82629 3.3586 4.78126 3.30214 4.72585C3.24567 4.67045 3.20205 4.60576 3.17382 4.53545C3.1456 4.46513 3.13331 4.39058 3.13763 4.31605C3.14195 4.24152 3.1628 4.16848 3.19901 4.10109C3.23522 4.0337 3.28609 3.9733 3.34867 3.92331C3.81703 3.53909 4.36589 3.23988 4.96425 3.04262C5.38902 2.90568 5.83741 2.83504 6.28946 2.83381C6.51623 2.83345 6.74247 2.85296 6.96489 2.89206C7.02421 2.89592 7.0826 2.9074 7.13818 2.92615C7.2137 2.93598 7.28755 2.95411 7.358 2.98013C7.5935 3.06735 7.78023 3.23383 7.87711 3.44293C7.97399 3.65204 7.97309 3.88666 7.8746 4.09518L7.82646 4.19745L6.79486 6.11648C6.85583 6.14205 6.91838 6.16903 6.97774 6.19744C7.0371 6.22585 7.13817 6.2841 7.21197 6.33097C7.44519 6.47741 7.65372 6.65246 7.83128 6.85087C8.19024 7.26968 8.42669 7.76056 8.51956 8.27983C8.58304 8.54352 8.59713 8.81466 8.56128 9.08239C8.77145 9.08239 8.98161 9.08239 9.19178 9.08239C9.25453 9.08161 9.31512 9.10255 9.36068 9.14076C9.40623 9.17897 9.43315 9.23142 9.43565 9.28693Z" fill="white"/>
<path d="M2.89304 9.07386H2.31384C2.25002 9.07386 2.18882 9.09632 2.14369 9.13628C2.09856 9.17624 2.07319 9.23042 2.07319 9.28693C2.07319 9.34344 2.09856 9.39763 2.14369 9.43759C2.18882 9.47755 2.25002 9.49999 2.31384 9.49999H2.89304C2.95686 9.49999 3.01806 9.47755 3.06319 9.43759C3.10832 9.39763 3.13369 9.34344 3.13369 9.28693C3.13369 9.23042 3.10832 9.17624 3.06319 9.13628C3.01806 9.09632 2.95686 9.07386 2.89304 9.07386Z" fill="white"/>
<path d="M7.94199 2.85511C8.36465 2.85511 8.70728 2.55176 8.70728 2.17756C8.70728 1.80335 8.36465 1.5 7.94199 1.5C7.51934 1.5 7.17671 1.80335 7.17671 2.17756C7.17671 2.55176 7.51934 2.85511 7.94199 2.85511Z" fill="white"/>
</svg>
