<svg width="11" height="12" viewBox="0 0 11 12" fill="none" xmlns="http://www.w3.org/2000/svg">
<path d="M10.0223 6.25493C10.0223 6.46816 9.9376 6.67267 9.78683 6.82344C9.63605 6.97422 9.43157 7.05891 9.21834 7.05891C9.1759 7.05788 9.13361 7.05386 9.09174 7.04686H9.0515C8.38455 6.93101 7.76461 6.62694 7.26469 6.17051L8.01842 4.58667C8.16428 4.81906 8.35808 5.01765 8.58685 5.16912C8.81562 5.32059 9.07411 5.42146 9.345 5.46502C9.53456 5.49515 9.70708 5.59213 9.83139 5.73839C9.95386 5.88273 10.0215 6.06564 10.0223 6.25493Z" fill="#232323"/>
<path d="M4.31212 8.25082C4.09959 8.4163 3.86813 8.55595 3.62267 8.66686C3.09892 8.89636 2.53228 9.01149 1.9605 9.00454C1.48426 9.0059 1.01034 8.9382 0.553537 8.80355C0.352553 8.73766 0.185625 8.59522 0.0889344 8.40711C-0.00775599 8.21899 -0.026433 8.00036 0.0369684 7.79858C0.0797461 7.66765 0.155443 7.5499 0.256806 7.45663C0.358169 7.36336 0.481775 7.2977 0.615808 7.26594C0.961518 7.18353 1.29518 7.36041 1.63285 7.3986C1.99439 7.43873 2.36034 7.40453 2.70819 7.29811C2.9266 7.23409 3.13111 7.12979 3.31117 6.99058C3.36015 7.14998 3.42761 7.30311 3.51216 7.44684C3.71112 7.77461 3.98535 8.05022 4.31212 8.25082Z" fill="#232323"/>
<path d="M9.73288 11.0185C9.73288 11.0984 9.70109 11.1751 9.64455 11.2317C9.58801 11.2882 9.51135 11.32 9.43139 11.32H2.99958C2.91962 11.32 2.84291 11.2882 2.78637 11.2317C2.72983 11.1751 2.69809 11.0984 2.69809 11.0185C2.69809 10.9385 2.72983 10.8619 2.78637 10.8053C2.84291 10.7488 2.91962 10.717 2.99958 10.717H7.01946C7.06569 10.717 7.08178 10.7049 7.07776 10.6527C7.06362 10.3515 7.0314 10.0515 6.98128 9.75425C6.91486 9.40422 6.7869 9.06872 6.60339 8.76334C6.50176 8.59845 6.37875 8.44774 6.23757 8.31513C6.19134 8.27292 6.14109 8.23071 6.08883 8.1885C5.89582 8.0376 5.6773 7.92256 5.44365 7.84883C4.94317 7.68 4.49297 7.5192 4.20756 7.04486C4.10268 6.86908 4.0358 6.67325 4.01122 6.47004C3.98664 6.26683 4.00491 6.06074 4.06486 5.86502C4.1332 5.68815 4.2357 5.51528 4.31811 5.34443L4.99141 3.9214C5.0095 3.88321 5.11605 3.57368 5.16026 3.56363C4.99564 3.59536 4.83371 3.63972 4.67589 3.69629C4.12277 3.90429 3.61598 4.21913 3.18448 4.62287C3.10609 4.69362 3.01453 4.74824 2.91503 4.7836C2.81553 4.81896 2.71006 4.83436 2.60461 4.82894C2.49915 4.82353 2.39577 4.79741 2.30042 4.75205C2.20506 4.70669 2.11961 4.64298 2.04888 4.56457C1.97813 4.48619 1.92349 4.39465 1.88813 4.29515C1.85276 4.19565 1.83737 4.09016 1.84278 3.9847C1.8482 3.87925 1.87432 3.77589 1.91968 3.68054C1.96504 3.58518 2.02877 3.49971 2.10718 3.42898C2.69393 2.88531 3.38153 2.46193 4.13115 2.1828C4.6633 1.98904 5.22504 1.88907 5.79136 1.88734C6.07545 1.88683 6.35889 1.91444 6.63754 1.96976C6.71186 1.97522 6.785 1.99147 6.85463 2.018C6.94924 2.0319 7.04176 2.05756 7.13002 2.09437C7.42506 2.2178 7.65898 2.45336 7.78035 2.74925C7.90172 3.04514 7.9006 3.37712 7.77721 3.67217L7.7169 3.81688L6.42453 6.53231C6.5009 6.56849 6.57927 6.60667 6.65364 6.64687C6.728 6.68707 6.85462 6.76949 6.94708 6.83582C7.23925 7.04302 7.5005 7.29072 7.72294 7.57146C8.17265 8.16408 8.46886 8.85867 8.58521 9.59345C8.66474 9.96657 8.68239 10.3502 8.63747 10.7291C8.90077 10.7291 9.16406 10.7291 9.42736 10.7291C9.50597 10.728 9.58189 10.7576 9.63896 10.8117C9.69603 10.8657 9.72974 10.9399 9.73288 11.0185Z" fill="#232323"/>
<path d="M1.53636 10.717H0.810748C0.730788 10.717 0.654125 10.7488 0.597584 10.8053C0.541044 10.8619 0.509257 10.9385 0.509257 11.0185C0.509257 11.0984 0.541044 11.1751 0.597584 11.2317C0.654125 11.2882 0.730788 11.32 0.810748 11.32H1.53636C1.61632 11.32 1.69298 11.2882 1.74952 11.2317C1.80606 11.1751 1.83785 11.0984 1.83785 11.0185C1.83785 10.9385 1.80606 10.8619 1.74952 10.8053C1.69298 10.7488 1.61632 10.717 1.53636 10.717Z" fill="#232323"/>
<path d="M7.86164 1.91748C8.39114 1.91748 8.82038 1.48824 8.82038 0.958742C8.82038 0.429243 8.39114 0 7.86164 0C7.33214 0 6.9029 0.429243 6.9029 0.958742C6.9029 1.48824 7.33214 1.91748 7.86164 1.91748Z" fill="#232323"/>
</svg>
