<svg width="11" height="10" viewBox="0 0 11 10" fill="none" xmlns="http://www.w3.org/2000/svg">
<path d="M5.13791 0.77135C5.28188 0.464648 5.71812 0.464648 5.86209 0.77135L6.9544 3.09828C7.01103 3.21891 7.12401 3.30342 7.25573 3.32366L9.73108 3.70411C10.0528 3.75356 10.1839 4.14603 9.95652 4.37891L8.14109 6.23825C8.05237 6.32912 8.01207 6.45673 8.03251 6.58208L8.45737 9.18687C8.51113 9.51645 8.16125 9.7629 7.86902 9.60131L5.69357 8.39831C5.57312 8.33171 5.42688 8.33171 5.30643 8.39831L3.13098 9.60131C2.83875 9.7629 2.48887 9.51645 2.54263 9.18687L2.96749 6.58208C2.98793 6.45673 2.94763 6.32912 2.85891 6.23825L1.04348 4.37891C0.816097 4.14603 0.947215 3.75356 1.26891 3.70411L3.74427 3.32366C3.87599 3.30342 3.98897 3.21891 4.0456 3.09828L5.13791 0.77135Z" fill="white"/>
</svg>
