<svg width="60" height="60" viewBox="0 0 60 60" fill="none" xmlns="http://www.w3.org/2000/svg">
<path fill-rule="evenodd" clip-rule="evenodd" d="M51.2208 8.77944C48.4361 5.99067 45.1278 3.77947 41.4861 2.27285C37.8444 0.766233 33.941 -0.00619159 30 3.73751e-05C26.059 -0.00619159 22.1556 0.766233 18.5139 2.27285C14.8722 3.77947 11.5639 5.99067 8.77919 8.77944C5.99042 11.5641 3.7792 14.8722 2.27258 18.5139C0.765951 22.1556 -0.00619161 26.059 3.7389e-05 30C-0.00619161 33.941 0.765951 37.8444 2.27258 41.4861C3.7792 45.1278 5.99042 48.4359 8.77919 51.2206C11.5639 54.0094 14.8722 56.2206 18.5139 57.7272C22.1556 59.2338 26.059 60.0062 30 60C33.941 60.0062 37.8444 59.2338 41.4861 57.7272C45.1278 56.2206 48.4361 54.0094 51.2208 51.2206C54.0096 48.4359 56.2208 45.1278 57.7274 41.4861C59.234 37.8444 60.0062 33.941 60 30C60.0062 26.059 59.234 22.1556 57.7274 18.5139C56.2208 14.8722 54.0096 11.5641 51.2208 8.77944ZM19.5513 26.1432H13.9356C13.4112 26.1432 12.9995 26.5549 12.9995 27.0793V42.0545C12.9995 42.5789 13.4112 42.9905 13.9356 42.9905H19.5513C20.0757 42.9905 20.4868 42.5789 20.4868 42.0545V27.0793C20.4874 26.5549 20.0757 26.1432 19.5513 26.1432ZM43.5823 24.8484C45.5822 24.8484 46.6294 26.392 46.6294 27.9172C46.6294 28.7076 46.3473 29.5033 45.7991 30.0866C46.3483 30.6692 46.63 31.465 46.63 32.2554C46.63 33.6182 45.7937 34.9966 44.1876 35.274C44.3689 35.6883 44.4606 36.142 44.4606 36.5931C44.4606 37.3807 44.1903 38.1215 43.6999 38.6788C43.2677 39.1692 42.6845 39.4897 42.0182 39.6095C42.2 40.0249 42.2918 40.4786 42.2918 40.9313C42.2918 42.4559 41.2451 44 39.2446 44H31.9137C28.0454 44 25.5146 43.1287 22.5861 42.1193C22.4913 42.0868 22.3958 42.0539 22.2995 42.0208C22.1848 41.9815 22.0692 41.9417 21.9527 41.9018V27.0793C21.9527 27.0135 21.9495 26.9493 21.9441 26.8851C22.2135 26.7509 22.4696 26.6256 22.7066 26.5096L22.7782 26.4745C24.5527 25.607 25.623 25.0831 26.8736 23.8325C28.3589 22.3473 29.3953 18.1639 29.6284 15.7987C29.7168 14.7359 30.6383 13.9385 31.7028 14.0037L31.7292 14.0059C33.365 14.11 34.6291 15.1335 35.2905 16.8874C36.191 19.2721 35.8101 22.5312 34.5147 24.8484H43.5823Z" fill="#E8FC66"/>
</svg>
