<svg width="10" height="10" viewBox="0 0 10 10" fill="none" xmlns="http://www.w3.org/2000/svg">
<path d="M5 10C6.32596 9.99958 7.59748 9.47259 8.53508 8.53485C9.47267 7.59711 9.99958 6.32538 10 4.99922C9.99958 3.67321 9.4726 2.40163 8.53496 1.46414C7.59732 0.526657 6.32581 -6.69886e-08 5 0C3.67419 -6.69886e-08 2.40264 0.526657 1.465 1.46414C0.527363 2.40163 0.000421427 3.67321 0 4.99922C0.000421272 6.32538 0.527331 7.59711 1.46492 8.53485C2.40251 9.47259 3.67405 9.99958 5 10ZM2.83373 6.28198L4.68214 4.85137V2.84058C4.68214 2.75626 4.71561 2.67538 4.77522 2.61576C4.83483 2.55614 4.9157 2.52266 5 2.52266C5.0843 2.52266 5.16513 2.55614 5.22474 2.61576C5.28435 2.67538 5.31786 2.75626 5.31786 2.84058V5.00714C5.31786 5.00714 5.31786 5.01988 5.31786 5.02623C5.31786 5.03259 5.31786 5.04848 5.31786 5.05961C5.31596 5.06934 5.31329 5.07889 5.30991 5.08821C5.31082 5.09826 5.31082 5.1084 5.30991 5.11844L5.29718 5.14704L5.2829 5.17405L5.2654 5.19951C5.25936 5.20767 5.25245 5.21512 5.24476 5.22175C5.23763 5.23047 5.22962 5.23845 5.2209 5.24558L5.20817 5.25831L3.23584 6.79226C3.16938 6.84371 3.08526 6.86672 3.00186 6.85629C2.91847 6.84587 2.84257 6.80284 2.79082 6.73661C2.76315 6.70423 2.74228 6.66662 2.72943 6.62601C2.71659 6.5854 2.71205 6.5426 2.71605 6.50019C2.72005 6.45779 2.73254 6.41664 2.75275 6.37915C2.77297 6.34167 2.8005 6.30861 2.83373 6.28198Z" fill="#232323"/>
</svg>
